<?xml version="1.0" encoding="utf-8"?>
<!-- Generator: Adobe Illustrator 16.0.3, SVG Export Plug-In . SVG Version: 6.00 Build 0)  -->
<!DOCTYPE svg PUBLIC "-//W3C//DTD SVG 1.1//EN" "http://www.w3.org/Graphics/SVG/1.1/DTD/svg11.dtd">
<svg version="1.1" id="Layer_1" xmlns="http://www.w3.org/2000/svg" xmlns:xlink="http://www.w3.org/1999/xlink" x="0px" y="0px"
	 width="601px" height="70px" viewBox="0 0 601 70" style="enable-background:new 0 0 601 70;" xml:space="preserve">
<polygon style="fill:#231F20;" points="56.629,3.523 65.579,3.523 65.579,28.829 88.279,28.829 88.279,3.523 95.024,3.471 
	95.024,65.698 88.279,65.698 88.279,32.269 65.579,32.269 65.579,65.698 56.629,65.698 "/>
<polygon style="fill:#231F20;" points="155.304,3.651 162.864,3.651 194.668,44.068 194.668,3.651 199.515,3.651 199.515,66.635 
	160.185,15.891 160.185,65.817 155.18,65.818 "/>
<path style="fill:#231F20;" d="M207.939,3.651h22.68l3.24,7.199c0,0-3.801-3.781-10.92-3.781c-5.04,0-5.497,0-5.497,0v21.902
	c0,0,4.537,0,9.217,0c4.683,0,5.378-0.458,7.2-2.279v9.238c0,0-2.04-3.12-7.2-3.12s-9.217,0-9.217,0v28.802c0,0,10.297,0,12.817,0
	c12.42,0,18.76-5.161,18.76-5.161l-4.559,9.36l-36.635,0.007L207.939,3.651z"/>
<path style="fill:#231F20;" d="M523.215,3.651h25.162l3.239,7.199c0,0-3.555-3.782-11.447-3.782c-5.038,0-8.279,0-8.279,0v21.903
	c0,0,5.366,0,10.046,0c3.654,0,4.784-0.329,6.188-1.731v7.365c0,0-1.028-2.155-6.188-2.155c-5.161,0-10.046,0-10.046,0v29.162
	c0,0,3.554,0,6.072,0c10.945,0,15.177-3.295,15.177-3.295l-5.544,7.494l-24.493,0.007L523.215,3.651z"/>
<path style="fill:#231F20;" d="M103.552,3.606h25.162l3.239,7.199c0,0-3.555-3.782-11.447-3.782c-5.038,0-8.279,0-8.279,0v21.903
	c0,0,5.366,0,10.046,0c3.654,0,4.784-0.329,6.188-1.731v7.365c0,0-1.028-2.155-6.188-2.155c-5.161,0-10.046,0-10.046,0v29.162
	c0,0,3.554,0,6.072,0c10.945,0,15.177-3.295,15.177-3.295l-5.544,7.494l-24.493,0.007L103.552,3.606z"/>
<g>
	<g>
		<path style="fill:#231F20;" d="M47.811,3.651h-16.35H6.528l-3.402,7.697c0,0,3.732-3.782,12.019-3.782c5.525,0,5.63,0,7.439-0.004
			L22.6,65.688l8.844,0.008l0.016-58.13c0,0,2.444,0,7.735,0c8.287,0,12.02,3.782,12.02,3.782L47.811,3.651z"/>
	</g>
</g>
<polygon style="fill:#231F20;" points="236.656,3.651 246.24,3.651 266.906,49.235 271.24,39.651 255.406,3.651 264.573,3.651 
	276.073,27.985 287.073,3.651 291.74,3.651 278.656,34.568 285.323,49.235 305.406,3.651 310.989,3.651 283.323,66.318 
	273.74,45.985 264.406,66.401 "/>
<path style="fill:#231F20;" d="M397.411,1.522c21.403,0,34.408,15.087,34.408,31.855c0,21.646-11.747,35.256-33.904,35.256
	c-22.16,0-35.381-16.746-35.381-33.367C362.534,16.506,376.511,1.522,397.411,1.522z M371.726,33.881
	c0,14.553,8.194,30.471,26.818,30.471c17.207,0,24.05-14.105,24.05-30.094c0-12.824-8.688-29.084-25.562-29.084
	C385.21,5.174,371.726,14.502,371.726,33.881z"/>
<path style="fill:#231F20;" d="M439.186,3.651c0,0,8.833,0,14.583,0c7.672,0,14.083,4.448,14.083,12.667
	c0,9.69-7.137,12.206-12,13.75c8.838,1.474,12.084,5.708,12.084,17.583c0,11.851,3.013,16.25,5.729,16.25
	c2.092,0,3.725-1.379,4.308-2.33l1.213,0.83c-0.356,0.557-2.809,4.417-8.5,4.417c-5.667,0-10-5.249-10-17.583
	c0-17.833-4.821-18.167-8.667-18.167v-1.333c0.116-0.027,8.25-1.768,8.25-11.75c0-9.438-5.667-10.917-8-10.917
	c-0.667,0-4.167,0-4.167,0v58.75h-9.032L439.186,3.651z"/>
<path style="fill:#231F20;" d="M557.223,3.651c0,0,8.834,0,14.584,0c7.673,0,14.083,4.448,14.083,12.667
	c0,9.69-7.138,12.206-12,13.75c8.838,1.474,12.083,5.708,12.083,17.583c0,11.851,3.014,16.25,5.731,16.25
	c2.092,0,3.724-1.379,4.307-2.33l1.212,0.83c-0.354,0.557-2.808,4.417-8.5,4.417c-5.666,0-10-5.249-10-17.583
	c0-17.833-4.82-18.167-8.666-18.167v-1.333c0.116-0.027,8.25-1.768,8.25-11.75c0-9.438-5.667-10.917-8-10.917
	c-0.667,0-4.167,0-4.167,0v58.75h-9.032L557.223,3.651z"/>
<path style="fill:#231F20;" d="M508.485,47.651c0,11.85,3.013,16.25,5.729,16.25c2.091,0,3.724-1.381,4.305-2.33l1.216,0.83
	c-0.358,0.556-2.812,4.416-8.5,4.416c-5.668,0-10-5.249-10-17.583v-2.499c0-7.352-0.359-13.086-1.635-16.842
	c-0.986-2.905-4.561-5.075-6.095-5.075l-1.917,0.001v40.999h-9.032l0.116-62.167h8.916v18.334l16.334-18.334h5.833l-17.155,19.256
	c8.838,1.473,11.885,8.062,11.885,22.328V47.651z"/>
<polygon style="fill:#231F20;" points="349.718,65.818 349.718,33.725 367.037,3.651 361.439,3.651 344.994,32.209 328.548,3.651 
	322.951,3.651 340.27,33.725 340.27,65.818 "/>
</svg>
