<?xml version="1.0" encoding="utf-8"?>
<!-- Generator: Adobe Illustrator 18.0.0, SVG Export Plug-In . SVG Version: 6.00 Build 0)  -->
<!DOCTYPE svg PUBLIC "-//W3C//DTD SVG 1.1//EN" "http://www.w3.org/Graphics/SVG/1.1/DTD/svg11.dtd">
<svg version="1.1" id="Layer_1" xmlns="http://www.w3.org/2000/svg" xmlns:xlink="http://www.w3.org/1999/xlink" x="0px" y="0px"
	 viewBox="0 0 174.3 114" enable-background="new 0 0 174.3 114" xml:space="preserve">
<g>
	<g>
		<polygon fill="none" points="93.7,21.2 94,21 94,21.1 93.6,21.4 93.3,21.5 93,21.5 93,21.8 93.3,21.8 93.9,21.6 94.3,21.3 
			94.5,21 94.2,20.8 94.3,20.7 93.9,20.4 93.8,20.7 93.4,21.1 93.1,21.1 92.8,21.1 92.8,21.4 93.1,21.4 		"/>
		<polygon fill="none" points="93.4,18.1 93.5,17.4 93.2,17.4 93,18.1 93.5,18.2 		"/>
		<polygon fill="none" points="99.2,19.3 99.4,19.1 99.1,18.7 98.8,18.7 98.8,19.1 99,19.4 		"/>
		<polygon fill="none" points="101.5,42.7 101.4,42.7 101.4,42.7 		"/>
		<polygon fill="none" points="94.8,19.7 95.1,20.1 95.4,20.1 95.3,19.8 94.8,19.5 95,19.3 95.1,19 94.8,18.7 94.6,18.7 94.4,19 
			94.7,19.5 		"/>
		<polygon fill="none" points="92.2,42.4 92.1,42.4 92.2,42.5 		"/>
		<polygon fill="none" points="72.1,43.5 72.4,44.2 73.5,45.3 74.4,45.9 74.6,46.6 74.8,47 74.9,47 75.9,47.2 77.1,48 77.9,48.1 
			77.5,47.4 75.2,45.8 74.1,44.8 73.8,44.2 72.7,43.2 72.3,42.7 72.3,42.6 71.6,42.6 71.2,42.6 71.4,42.9 		"/>
		<polygon fill="none" points="45.1,48.9 44.7,48.8 44.6,49.2 44.8,49.5 45.2,49.7 45.7,49.5 45.4,49.2 		"/>
		<polygon fill="none" points="100.2,15.5 100,15.3 99.3,15.2 99.5,15.6 		"/>
		<polygon fill="none" points="76.9,43.4 80.1,45 80.5,45.5 81.3,44.9 81,44.6 80.1,44.1 79.9,43.9 79.9,43.4 79.1,43.6 78.1,42.7 
			77.8,42.8 76.5,42.7 76.5,42.7 		"/>
		<polygon fill="none" points="86.2,43.1 86.5,43 86.4,42.7 86.2,42.5 85.9,42.5 85.8,42.8 		"/>
		<polygon fill="none" points="79.7,20.8 81.5,20 82.1,19.7 83.1,19.7 84.3,19.4 85.1,19.6 85.9,19.3 88.8,19.5 89.2,19.4 89.7,20 
			90.2,19.8 91.2,20.1 91.5,19.9 91.5,19.5 90.8,19.2 90.4,19.2 87.3,18.2 86.5,18.6 86.2,18.4 85.5,18.3 82.5,18.7 82.1,18.7 
			81.8,19.3 80.3,19.9 78.8,20.7 76.7,22.2 77.6,22.3 78.5,21.5 		"/>
		<polygon fill="none" points="100.8,15.9 101,16 101.1,15.7 101,15.5 100.7,15.3 100.4,15.4 100.5,15.7 		"/>
		<polygon fill="none" points="42.9,51.9 42.5,51.4 42.3,51.1 42,51.3 41.9,51.8 42.1,53.2 42.6,53.6 42.9,53.4 42.9,52.9 
			42.2,52.6 		"/>
		<polygon fill="none" points="95.3,22.1 95.1,21.7 94.8,21.8 94.3,21.4 94.2,21.6 94.5,21.8 94.4,21.9 94.8,22.3 95.4,22.3 
			95.3,22.1 		"/>
		<polygon fill="none" points="69.1,20.8 69.2,20.2 70.1,19.2 71.7,17.3 72.4,16.9 72.5,16.6 72.7,16.3 75.3,14.5 78.3,13 79,12.9 
			80.7,12.1 81.6,12.1 82.3,11.8 82.7,11.6 85.7,11.6 87.7,11.4 88.4,11.7 89.2,11.8 89.9,11.6 90.2,11.4 90.2,11.1 89.8,10.9 
			89.4,10.9 89,10.9 87.9,10.8 87.6,10.9 87.2,10.6 86.8,10.5 82.5,10.9 80.6,11.5 79.6,11.4 76.8,13 75.4,13.6 75,13.7 73.8,14.4 
			72.1,16 71.3,16.5 69.8,18.1 68.5,19.9 67.2,21.3 66.8,22.4 67.8,22.5 68.1,21.9 		"/>
		<polygon fill="none" points="75.3,19.1 77.8,17.2 78.3,17 78.6,17.1 79.4,16.5 79.9,16.5 80.6,16.1 83,15.5 84,15.5 84.7,15.2 
			86.1,15.1 86.6,15 90.4,15.6 91.1,15.4 90.9,15.1 90.3,14.7 87.8,14.4 87.5,14.3 86.7,14.6 85.5,14.2 82.8,14.6 82.2,15 81.5,15 
			79.6,15.4 79.1,15.9 77.7,16.5 77,16.9 76.4,17.4 75.3,17.9 74.1,19 73.2,19.6 71.5,22 71.4,22.1 71.6,22.1 72.6,22.1 73.1,21.1 
					"/>
		<polygon fill="none" points="90.1,18.3 89.9,18.6 89.9,18.9 90.1,19.1 90.5,18.2 90.2,18.1 		"/>
		<polygon fill="none" points="100.6,19.6 100.7,19.9 101,20 101.4,19.9 101.4,19.6 101.2,19.4 100.7,19.3 		"/>
		<polygon fill="none" points="130,9.8 129.9,11 130.4,11.4 130.7,11.3 130.7,11 130.2,9.3 130.3,9 129.3,8.8 129.4,9.5 		"/>
		<polygon fill="none" points="135.5,7.1 135.7,6.8 135.3,6.9 134.9,7.1 134.8,7.4 135.2,7.4 		"/>
		<polygon fill="none" points="134.5,8.9 134.6,8.7 134.5,8.4 134.2,8.4 133.6,8.7 133.9,8.9 		"/>
		<path fill="none" d="M40.7,52.6l-0.2-0.1c0,0,0,0.1,0,0.1l0.1,0.2l0.7,0.7l-0.1-0.3L40.7,52.6z"/>
		<polygon fill="none" points="92.5,53.9 92.6,54.1 92.8,54.4 93,54.6 93.2,54.5 92.7,53.7 		"/>
		<polygon fill="none" points="95.7,45.3 95.5,45.3 94.9,45.5 95.1,45.6 95.7,45.5 		"/>
		<polygon fill="none" points="88.2,42.9 87.8,42.4 87.6,42.6 87.7,42.9 88,43 		"/>
		<polygon fill="none" points="92.3,45.2 91.9,44.8 91.8,44.5 91.6,44.7 91.5,45.1 91.7,46.2 92.1,46.6 92.4,46.5 92.4,46 
			91.8,45.7 		"/>
		<path fill="none" d="M88.9,42.6l-0.2,0c0,0-0.1,0.1-0.1,0.1l0.1,0.2l0.6,0.6l0-0.3L88.9,42.6z"/>
		<polygon fill="none" points="88.6,51.7 88.2,52 87.9,52.5 87.8,52.8 88.2,52.9 88.3,52.6 88.5,52.1 88.7,51.9 89,51.9 88.9,51.6 
					"/>
		<polygon fill="none" points="93.5,50.3 93.2,50.4 93.3,50.8 93.5,50.8 94,50.6 93.8,50.4 		"/>
		<polygon fill="none" points="95.4,51.3 95.5,51.6 95.4,51.9 95.7,52.2 96,52 96.6,52.2 96.6,52 95.8,51.6 		"/>
		<polygon fill="none" points="47,49.6 47.2,49.2 46.8,49.1 46.4,49.3 46.3,49.7 46.7,49.8 		"/>
		<path fill="none" d="M97.8,43.2l-0.3,0l-0.3,0.4l0.9-0.1c0,0,0.1-0.1,0.1-0.1l-0.1-0.1L97.8,43.2z"/>
		<polygon fill="none" points="97.9,45.4 97.8,45.6 98,46 98.3,46.1 98.2,45.8 		"/>
		<path fill="none" d="M86.5,47.2c0,0.2,0,0.3,0,0.5l0.8-0.2L87,47.2L86.5,47.2z"/>
		<path fill="none" d="M81.8,42.8l-0.3,0l0.2,0.3l0.1,0.3l0.4,0.4l0.1,0.1c0-0.2,0-0.3,0-0.5l-0.3,0L81.8,42.8z"/>
		<path fill="none" d="M81,49.2l-0.2,0.1c0,0.1,0,0.1-0.1,0.2c0,0-0.1,0.1-0.1,0.1l0.2,0.1l0.3,0l0.2-0.2l0-0.3L81,49.2z"/>
		<polygon fill="none" points="83.6,53.6 83.6,53.9 83.7,54.1 84.6,54 84.5,53.7 83.8,53.3 		"/>
		<path fill="none" d="M83.9,47.8c0-0.1,0-0.2,0-0.3L83,47.1l-0.2,0.2l0.4,0.4l0.5,0.1L83.9,47.8z"/>
		<polygon fill="none" points="47.4,50.7 46.6,51 47,51.2 47.7,51.1 47.7,50.8 		"/>
		<polygon fill="none" points="72.1,47.7 71.2,46.9 71.3,46.4 70.9,46.4 70.3,46 68.8,44.1 69,43.2 68.6,43.2 67.6,43.7 67.6,43.8 
			67.8,44.4 68.1,44.5 68.6,45.5 69.1,45.9 69.5,46.7 72.9,49.9 73.5,50.2 73.8,50.2 74.2,49.6 72,48.1 		"/>
		<polygon fill="none" points="86.4,54.6 86.1,54.6 85.9,54.8 86.1,55.1 86.7,55.3 86.8,55.1 86.6,54.8 		"/>
		<polygon fill="none" points="86.7,50.3 86.5,50.5 86.4,50.7 86.9,51 87.1,50.9 87,50.5 		"/>
		<path fill="none" d="M84.4,56.6c-0.3,0.3-0.7,0.4-1.1,0.3L83.2,57l0.3,0.3l0.6,0.1l0.5-0.4l0.1-0.2L84.4,56.6L84.4,56.6z"/>
		<path fill="#212A3F" d="M66.8,22.4l0.4-1.1l1.2-1.3l1.3-1.8l1.6-1.7l0.7-0.4l1.8-1.7l1.2-0.7l0.4-0.1l1.4-0.6l2.8-1.6l1,0.1
			l1.9-0.6l4.3-0.4l0.5,0.1l0.4,0.3l0.3-0.1l1.1,0.1l0.4-0.1l0.4,0l0.4,0.2l-0.1,0.3l-0.2,0.3l-0.7,0.1l-0.9-0.1l-0.6-0.3l-2,0.2
			l-3.1,0l-0.4,0.3l-0.7,0.2l-0.8,0.1L79,12.9L78.3,13l-3,1.5l-2.5,1.7l-0.3,0.3l-0.1,0.3l-0.7,0.4l-1.5,1.9l-1,1l-0.1,0.6l-1,1.2
			l-0.3,0.6l0.8,0.1l2.9-0.4l0.1-0.1l1.7-2.5l0.9-0.6l1.2-1.1l1.1-0.5l0.5-0.5l0.7-0.4l1.4-0.5l0.5-0.5l1.9-0.4l0.7,0l0.6-0.4
			l2.8-0.3l1.2,0.3l0.8-0.3l0.3,0.1l2.5,0.4l0.6,0.4l0.2,0.3l-0.8,0.1L86.6,15l-0.4,0.1l-1.4,0.1L84,15.5l-1.1,0l-2.4,0.6l-0.7,0.4
			l-0.6,0l-0.7,0.5L78.3,17l-0.4,0.2l-2.5,1.9l-2.2,2.1l-0.6,1l2.1,0l2,0.1l2.1-1.6l1.5-0.7l1.5-0.6l0.4-0.5l0.4,0l3-0.5l0.7,0.1
			l0.3,0.2l0.7-0.4l3.1,1l0.4,0l0.7,0.3l0.1,0.4l-0.3,0.2l-1.1-0.3L89.7,20l-0.5-0.5l-0.4,0.1l-2.9-0.2l-0.8,0.3l-0.8-0.3l-1.2,0.3
			l-1,0L81.5,20l-1.8,0.8l-1.1,0.7l-0.9,0.8l0.3,0l3.1,0l3.1,0.1l3.1-0.1l3.1,0l3.1-0.2l1.3,0.1l-0.4-0.3l0.1-0.1l-0.3-0.3l0.1-0.2
			l0.5,0.4l0.3-0.1l0.2,0.4l0,0l0.1,0.2l1.1,0.1l3.1-0.3l3.1,0.2l3.1-0.2L109,22l1.4,0l10.8-5.5l1.1-0.8l0.4,0l1.6-0.7l0.5,0.3
			l0.2,0.4l0.5,0.6l0.6,0.3l0.6,0.1l0.3-0.2l2.5-2.2l0.6-0.3l1.7-1.8l1-0.9l3-2.5l-0.2,0L135.4,9c0,0,0-0.1,0-0.1l-0.3-0.1l0.3-0.1
			c0,0,0,0,0-0.1l0.1-0.3l0.4,0.1l0.1,0.1l0.2,0.1l0,0.3l-0.2,0l0,0.2l1.1-0.9l0-0.3l0.3-0.6l0-0.3l-0.8-1.1L134,5.9l-0.7,0.3
			l0.1,0.2l0.1,0l0.3,0.3l0.3,0.3l-0.4,0.1l-0.1,0l0,0l-0.3-0.1l-0.4-0.7l0.1-0.1l-0.3,0.2l-1,0l-2.5,0.8l-0.2,0.7l-0.1,0.3
			l-0.2-0.1l-0.1-0.3l0.2-0.2l0-0.2l-0.2,0.1l-1.3,0.1l-0.2,0.2l0.3,0.4l0,0.3l-0.4,0.1L127,8.1L127,7.9l-3.1,0.5l-0.8,0.3l-0.5,0.4
			l-0.3,0.5l-0.1,0.6l0.3,0.9l0.4,0.6l-0.3,0.5l-1.5,1l-1.3,0.4l-11.6,5.9l-1.6-2.6l-1-1.3l-1-0.6l0-0.3l-0.4-0.5l-1.2-1l-0.2-0.4
			l-2.6-1.8l-2.6-1.6l-1.4-0.5l-1.5-0.8l-0.4,0.1l-1.7-0.7l-3-0.5l-6.3-0.1l-3,0.5L76,9.1l-2.7,1.4l-2.4,1.7l-2.2,1.9l-2.2,2.3
			l-1.8,2.4l-1.5,2.7l-0.2,0.6l2.4,0.2L66.8,22.4z M90.1,19.1l-0.2-0.2l0-0.2l0.2-0.3l0.2-0.2l0.3,0.1L90.1,19.1z M134.9,7.1
			l0.4-0.2l0.4,0l-0.2,0.3l-0.3,0.2l-0.4,0L134.9,7.1z M134.2,8.4l0.3,0l0.1,0.3l-0.1,0.2l-0.7-0.1l-0.3-0.2L134.2,8.4z M130.3,9
			l-0.1,0.4l0.5,1.6l0.1,0.4l-0.3,0l-0.5-0.3l0.1-1.2l-0.6-0.3l-0.1-0.7L130.3,9z M101.4,19.6l0,0.3L101,20l-0.3-0.1l-0.2-0.3
			l0.1-0.3l0.6,0.1L101.4,19.6z M100.7,15.3l0.3,0.1l0.1,0.2l0,0.3l-0.3,0l-0.2-0.2l-0.2-0.3L100.7,15.3z M100,15.3l0.2,0.2
			l-0.8,0.1l-0.2-0.4L100,15.3z M98.8,18.7l0.2,0l0.3,0.4l-0.2,0.2L99,19.4l-0.2-0.3L98.8,18.7z M94.6,18.7l0.3,0l0.2,0.2L95,19.3
			l-0.2,0.2l0.5,0.3l0,0.3l-0.2,0l-0.3-0.3l-0.1-0.3L94.4,19L94.6,18.7z M93.2,17.4l0.3,0.1l-0.1,0.6l0.2,0.1L93,18.1L93.2,17.4z
			 M92.8,21.1l0.3,0.1l0.2-0.1l0.4-0.4l0.1-0.3l0.4,0.2l-0.1,0.2l0.3,0.2l-0.2,0.3l-0.4,0.3l-0.6,0.2l-0.3,0l0-0.3l0.3,0.1l0.2-0.1
			l0.4-0.4l0-0.1l-0.3,0.3l-0.6,0.2l-0.3,0L92.8,21.1z"/>
		<path fill="#212A3F" d="M105.9,42.7l-3.1,0.1l-1.3,0l0,0l0,0l-1.8,0l-3.1-0.4l-3.1,0.1l-1.2,0l0,0l-0.1,0l-1.8,0l-3.1-0.1l-1,0.1
			l0.3,0.2l0.1,0.3l-0.3,0.1l-0.4-0.4l0-0.2l-1.8,0.2l-3.1-0.3l-2.8,0.3l1,0.8l0.8-0.1l0,0.4l0.2,0.3l0.9,0.4l0.3,0.4l-0.8,0.5
			L80.1,45l-3.2-1.7l-0.4-0.7l0,0l-1.7-0.1l-2.5,0.1l0,0.1l0.4,0.6l1.1,1l0.4,0.6l1,1l2.3,1.5l0.5,0.8L77.1,48l-1.3-0.8l-1-0.3
			l-0.1,0l-0.2-0.5l-0.2-0.6l-0.9-0.7l-1.1-1.1l-0.3-0.7l-0.7-0.6l-0.2-0.3l-2.7-0.3l-3.1,0.5l-2.5-0.4l0.1,0.3l-3.3,1.7l-0.3,0.4
			l-0.7,0.1l-1,0.8l-0.4,0l-1,0.6L55,46.8l-0.5,0.3l-0.2,0.2l0.1,0l0.2,0.2c0,0-0.1,0.1-0.1,0.1l-0.7,0l-0.9,0.3l-1.9,1l-1.2-0.3
			l-0.7,0l-0.2-0.3l-2.5-0.7l-1.2-0.2l-0.3,0.1l0.3,0l0.2,0.2l-0.5,0.3l-0.3,0.1L44.4,48l-0.1,0.1l-0.5,0.6l0.2,0.8l0.4,0.5l1.1,0.5
			l0.4,0.3l0,0l0,0l0.1,0.1l0.2,0.3L46,51.4l-0.5,0.3l-0.6,0L43,51l-2.3-0.7l0,0.1l-0.1,0.3l-0.2-0.1l-0.1-0.3l0,0L40.1,50l-0.5,0
			l-0.5,0.2L38.7,51l0,0.7l0.3,0.9l0.3,0l0.6-0.2l0,0.4l0.4,0.4l0.7,0.3l0.2,0.2l-0.7,0.6l-1.3,0.7l-1.1,0.8l-0.4,0.5l-0.2,0.6
			l0.6,1.1l1.2,0.2l0.6-0.4l0.7-0.1l1.5-0.9l0.5-0.2l0.2,0.1l0.1,0.3l0,0.6l-0.2,1.1l0.1,0.7l0.3,0.7l0.8,0.2l0.8-0.2l0.5-0.5
			l0.2-0.9l0.5-0.8l0.1-1.1l0.4-0.5l0.4-1.4l0.3-0.7l0.3-0.2l0.4,0.1l0.2,0.2l0,0.3l-0.5,1.5l0.2,0.7l0.5,0.5l0.6,0.2l0.6,0l0.6-0.2
			l0.3-0.3l1.2-3.6l0.5-1.9l3.9-2l1.2-0.7l0.4,0l0.8-0.6l1.2-0.4l0.2-0.3l1-0.3l1.1-0.7l0.4,0l0.9-0.6l1.5-0.8l0.6,1.2l1.1,1
			l0.3,0.8l0.5,0.4l1.6,1.8l2.2,1.9l2.5,1.6l2.7,1.6l3,1.1l3,0.6l1.4,0.5l0.7-0.1l4.3,0.1l1.6-0.4l0.3,0.1l0.7-0.3l1.5-0.3l3-0.9
			l2.7-1.2l2.8-1.6l1.1-0.9l2.2-2l3.1-3.3l1.9-3.5l0.6-0.8l0.1-0.4l-0.8,0L105.9,42.7z M45.2,49.7l-0.4-0.1l-0.2-0.3l0.1-0.4
			l0.4,0.1l0.3,0.3l0.3,0.3L45.2,49.7z M40.5,52.8l-0.1-0.2c0,0,0-0.1,0-0.1l0.2,0.1l0.4,0.7l0.1,0.3L40.5,52.8z M42.9,53.4
			l-0.3,0.2l-0.5-0.4l-0.2-1.4l0.1-0.5l0.2-0.2l0.2,0.4l0.4,0.5l-0.7,0.6l0.7,0.3L42.9,53.4z M46.3,49.7l0.1-0.4l0.4-0.2l0.4,0
			L47,49.6l-0.3,0.2L46.3,49.7z M47,51.2L46.6,51l0.8-0.3l0.2,0.1l0,0.3L47,51.2z M73.8,50.2l-0.3-0.1l-0.6-0.3l-3.4-3.1l-0.4-0.8
			l-0.5-0.4l-0.5-0.9l-0.2-0.1l-0.2-0.6l0-0.1l1-0.5l0.4-0.1l-0.2,0.9l1.5,2l0.6,0.3l0.4,0l-0.1,0.5l0.8,0.8l0,0.4l2.1,1.5
			L73.8,50.2z M84.5,53.7l0,0.2l-0.8,0.2l-0.2-0.2l0.1-0.3l0.2-0.3L84.5,53.7z M81.1,49.8l-0.3,0l-0.2-0.1c0,0,0.1-0.1,0.1-0.1
			c0-0.1,0.1-0.1,0.1-0.2l0.2-0.1l0.3,0.1l0,0.3L81.1,49.8z M82.4,43.8l-0.1-0.1l-0.4-0.4l-0.1-0.3l-0.2-0.3l0.3,0l0.4,0.5l0.3,0
			C82.5,43.5,82.4,43.6,82.4,43.8z M82.8,47.3l0.2-0.2l0.9,0.3c0,0.1,0,0.2,0,0.3l-0.2,0.1l-0.5-0.1L82.8,47.3z M84.5,57.1l-0.5,0.4
			l-0.6-0.1L83.2,57l0.1-0.1c0.4,0.1,0.8,0.1,1.1-0.3l0.1,0l0.1,0.2L84.5,57.1z M86.7,55.3l-0.6-0.3l-0.2-0.3l0.2-0.2l0.3,0l0.2,0.2
			l0.1,0.3L86.7,55.3z M86.9,51l-0.4-0.3l0.1-0.2l0.2-0.2l0.3,0.2l0.1,0.4L86.9,51z M86.5,47.7c0-0.2,0-0.3,0-0.5l0.5,0.1l0.3,0.2
			L86.5,47.7z M87.6,42.6l0.2-0.2l0.5,0.6L88,43l-0.2-0.1L87.6,42.6z M88.7,51.9l-0.2,0.1l-0.3,0.5l0,0.3l-0.5-0.1l0.1-0.3l0.3-0.5
			l0.5-0.4l0.3-0.1l0.1,0.3L88.7,51.9z M88.6,42.8l-0.1-0.2c0,0,0.1-0.1,0.1-0.1l0.2,0l0.3,0.6l0,0.3L88.6,42.8z M92.4,46.5
			l-0.3,0.1l-0.4-0.4l-0.2-1.2l0.1-0.4l0.2-0.2l0.2,0.3l0.4,0.4l-0.5,0.5l0.6,0.3L92.4,46.5z M93,54.6l-0.2-0.1l-0.2-0.3l-0.1-0.2
			l0.2-0.2l0.6,0.8L93,54.6z M93.5,50.8l-0.3,0l-0.1-0.4l0.3-0.1l0.3,0.1l0.2,0.2L93.5,50.8z M95.1,45.6l-0.3-0.1l0.6-0.2l0.2,0.1
			l0,0.2L95.1,45.6z M96.6,52.2L96,52l-0.3,0.2l-0.3-0.3l0.1-0.3l0-0.3l0.4,0.4l0.8,0.3L96.6,52.2z M98,46l-0.2-0.4l0.2-0.2l0.3,0.4
			l0,0.3L98,46z M98.2,43.5l-0.9,0.1l0.3-0.4l0.3,0l0.3,0.1L98.2,43.5C98.2,43.5,98.2,43.5,98.2,43.5z"/>
	</g>
	<g>
		<polygon fill="#212A3F" points="127.5,24.1 127.6,24 127.2,24 127.2,24 		"/>
		<path fill="#212A3F" d="M136.9,34.1l0.2-3.4l-0.1-3.4l0.1-3.4l-3.1,0.1l-3.1,0l-2.3-0.1l0,0l-0.3,0.2l-0.5,0.1l-0.6-0.1l-0.3-0.1
			l0.1-0.1l-2.3,0l-3.1,0l-3.1,0l-3.1,0l-3.1,0.1L109,24l-3.1,0l-3.1,0.1L99.6,24l-3.1,0.1L93.4,24l-3.1,0l-3.1,0.1l-3.1,0L81,23.9
			l-3.1,0.2l-3.1,0L71.6,24L68.5,24l-3.1,0.1L62.3,24l-3.1,0.1L56,24l-3.1,0l-3.1,0.1L46.7,24l-3.1,0l-3.1,0.1L37.3,24l0,3.4l0,3.4
			l0.1,3.4l-0.1,3.4l0,3.4l3.1,0l3.1,0l3.1,0l3.1,0.1l3.1-0.1l3.1,0.1l3.1-0.1l3.1,0.1l3.1,0.1l3.1,0l3.1,0l3.1-0.1l3.1,0l3.1,0
			l3.1,0.1l3.1-0.1l3.1,0.1l0.7,0l0.3-0.1l0.2,0.1l0,0l1.9,0l3.1-0.1l3.1,0l3.1,0l3.1,0.1l3.1,0l3.1,0.1l3.1,0l3.1,0l3.1-0.1
			l3.1,0.1l3.1-0.1l3.1,0.1l3.1,0l3.1,0l0.1-3.4L136.9,34.1z M40.9,32.7l-0.1-0.2c0,0,0-0.1,0-0.1l0.2,0.1l0.4,0.7l0.1,0.3
			L40.9,32.7z M43.2,34.8L42.9,35l-0.5-0.4l-0.2-1.4l0.1-0.5l0.2-0.2l0.2,0.4l0.4,0.5l-0.7,0.6l0.7,0.3L43.2,34.8z M44.3,26
			l-0.4-0.1l-0.2-0.3l0.1-0.4l0.4,0.1l0.3,0.3l0.3,0.3L44.3,26z M46,26.5l-0.3,0.2l-0.4,0l0.1-0.4l0.4-0.2l0.4,0L46,26.5z
			 M47.1,30.7l-0.3-0.2l0.8-0.3l0.2,0.1l0,0.3L47.1,30.7z M53.3,34.8l-0.4-0.3l-0.1-0.2l0.3-0.1l0.3,0.3L53.3,34.8z M55,27.5l-0.3,0
			l-0.2-0.1c0,0,0.1-0.1,0.1-0.1c0-0.1,0.1-0.1,0.1-0.2l0.2-0.1l0.3,0.1l0,0.3L55,27.5z M56.5,39.8l-0.1-0.1l-0.4-0.4l-0.1-0.3
			l-0.2-0.3l0.3,0l0.4,0.5l0.3,0C56.5,39.5,56.5,39.7,56.5,39.8z M62.2,37.2l-0.4-0.4l0-0.2l0.3,0l0.3,0.2l0.1,0.3L62.2,37.2z
			 M68.3,36.4l-0.2-0.1L67.9,36l0.2-0.2l0.5,0.6L68.3,36.4z M71,37.5L71,37.4c0,0,0.1-0.1,0.1-0.1l0.2,0l0.3,0.6l0,0.3L71,37.5z
			 M74.7,33.9l-0.5-0.1L74,33.7l0.5-0.2l0.2,0l0.1,0.3L74.7,33.9z M95.9,29.7l-0.2,0.2l-0.3,0l0.1-0.3l0.3-0.2l0.3,0L95.9,29.7z
			 M97.4,30.5l-0.2,0.2l-0.3,0l0.1-0.3l0.3-0.2l0.3,0L97.4,30.5z M100.2,26.9l0.1-0.6l0-0.1l-0.1-0.1l-0.1-0.1l0.1,0.2l0.1,0.1
			l0,0.3l0,0.3L100.2,26.9z M102.2,38.6l-0.9,0.1l0.3-0.4l0.3,0l0.3,0.1L102.2,38.6C102.2,38.6,102.2,38.6,102.2,38.6z M104.7,29.3
			l-0.2-0.4l0,0l-0.1-0.3l0.1-0.2l0.2,0.1l0.1,0.2l0.2,0.3l0,0L105,29l0.2,0.3L104.7,29.3z M109.3,32.4l-0.2-0.2l0-0.3l0.1-0.2
			l0.2,0.2l0.1,0.3l0.1,0.3L109.3,32.4z M112.5,25.1l-0.1,0c-0.1-0.2-0.2-0.4-0.2-0.6l0,0c0.1,0.1,0.3,0.1,0.4,0.2l0.1,0.2
			L112.5,25.1z M120.2,35.4l-0.3,0.1l-0.3-0.1l0.2-0.3l0.3,0l0.3,0.1L120.2,35.4z M121.9,31l-0.2,0l-0.2,0.3l0.2,0.3l0.2,0.3
			l-0.8-0.2l0.1-0.2l0.4-0.5l0.5-0.1L121.9,31z M124.4,33.1l0-0.3l0.1-0.2l0.2,0.1l0.1,0.2l0,0.3L124.4,33.1z M126.5,27.4l-0.5-0.2
			l-0.2-0.2l0.6,0.1l0.2,0.1L126.5,27.4z M129.3,26.1l-0.2,0.3l0-0.5l-0.3-0.8l0.2-0.1l0.3,0.6l0.3,0l0,0.4L129.3,26.1z M130.9,28.4
			l-0.3-0.1l-0.1-0.2c0.1-0.1,0.1-0.2,0.2-0.3l0.1-0.2l0.2,0.2l0,0.3L130.9,28.4z"/>
	</g>
	<g>
		<g>
			<path fill="#8AB839" d="M41.6,37.2c-0.2,0-0.3-0.1-0.3-0.3v-9c0-0.2,0.1-0.3,0.3-0.3h3.9c2.5,0,3.7,1.7,3.7,3.7
				c0,2-1.2,3.7-3.7,3.7H44c-0.1,0-0.2,0.1-0.2,0.2v1.6c0,0.2-0.1,0.3-0.3,0.3H41.6z M45.4,29.9H44c-0.1,0-0.2,0.1-0.2,0.2v2.4
				c0,0.1,0.1,0.2,0.2,0.2h1.4c1,0,1.4-0.6,1.4-1.5C46.8,30.6,46.4,29.9,45.4,29.9z"/>
			<path fill="#8AB839" d="M49.7,32.4c0-2.7,2.3-5,5.1-5c2.8,0,5.1,2.2,5.1,5c0,2.7-2.3,5-5.1,5C52.1,37.4,49.7,35.1,49.7,32.4z
				 M52.2,32.4c0,1.4,1.2,2.6,2.6,2.6c1.5,0,2.6-1.1,2.6-2.6c0-1.4-1.1-2.6-2.6-2.6C53.4,29.8,52.2,31,52.2,32.4z"/>
			<path fill="#8AB839" d="M60.5,34.7c0-0.2,0.1-0.3,0.3-0.3h1.7c0.3,0,0.3,0.1,0.5,0.3c0.2,0.3,0.7,0.6,1.5,0.6
				c0.9,0,1.2-0.3,1.2-0.6c0-0.4-0.5-0.6-1.6-1c-1.5-0.5-3.5-1.2-3.5-3.2c0-1.8,1.6-3,3.7-3c2.2,0,3.8,1.2,3.9,2.9
				c0,0.2-0.1,0.3-0.3,0.3h-1.7c-0.2,0-0.3-0.1-0.4-0.3c-0.1-0.4-0.6-0.8-1.4-0.8c-0.8,0-1.2,0.3-1.2,0.6c0,0.4,0.4,0.6,1.6,1
				c1.3,0.5,3.6,1.2,3.6,3.3c0,1.9-1.6,2.8-3.8,2.8C62.4,37.4,60.7,36.4,60.5,34.7z"/>
			<path fill="#8AB839" d="M69.1,30c-0.2,0-0.3-0.1-0.3-0.3v-1.8c0-0.2,0.1-0.3,0.3-0.3h7.8c0.2,0,0.3,0.1,0.3,0.3v1.8
				c0,0.2-0.1,0.3-0.3,0.3h-2.4c-0.1,0-0.2,0.1-0.2,0.2v6.6c0,0.2-0.1,0.3-0.3,0.3h-1.9c-0.2,0-0.3-0.1-0.3-0.3v-6.6
				c0-0.1-0.1-0.2-0.2-0.2H69.1z"/>
			<path fill="#8AB839" d="M78.4,37.2c-0.2,0-0.3-0.1-0.3-0.3v-9c0-0.2,0.1-0.3,0.3-0.3h6.7c0.2,0,0.3,0.1,0.3,0.3v1.8
				c0,0.2-0.1,0.3-0.3,0.3h-4.3c-0.1,0-0.2,0.1-0.2,0.2v0.9c0,0.1,0.1,0.2,0.2,0.2h3.5c0.2,0,0.3,0.1,0.3,0.3v1.6
				c0,0.2-0.1,0.3-0.3,0.3h-3.5c-0.1,0-0.2,0.1-0.2,0.2v0.7c0,0.1,0.1,0.2,0.2,0.2h4.3c0.2,0,0.3,0.1,0.3,0.3v1.8
				c0,0.2-0.1,0.3-0.3,0.3H78.4z"/>
			<path fill="#8AB839" d="M86.6,27.9c0-0.2,0.1-0.3,0.3-0.3h4.4c2.4,0,3.6,1.6,3.6,3.5c0,1.3-0.5,2.4-1.7,3.1
				c-0.1,0.1-0.1,0.2-0.1,0.3l1.7,2.4c0.1,0.1,0,0.2-0.1,0.2h-2.3c-0.2,0-0.4-0.1-0.5-0.2l-1.5-2.1c-0.1-0.1-0.2-0.2-0.4-0.2h-0.8
				c-0.1,0-0.2,0.1-0.2,0.2v2c0,0.2-0.1,0.3-0.3,0.3h-1.8c-0.2,0-0.3-0.1-0.3-0.3V27.9z M91.2,29.9h-1.8c-0.1,0-0.2,0.1-0.2,0.2v2.1
				c0,0.1,0.1,0.2,0.2,0.2h1.8c1,0,1.3-0.6,1.3-1.3C92.5,30.4,92.1,29.9,91.2,29.9z"/>
			<path fill="#F2F2F2" d="M96.3,37.2c-0.2,0-0.3-0.1-0.3-0.3v-9c0-0.2,0.1-0.3,0.3-0.3h6.5c0.2,0,0.3,0.1,0.3,0.3v1.8
				c0,0.2-0.1,0.3-0.3,0.3h-4.1c-0.1,0-0.2,0.1-0.2,0.2v1.2c0,0.1,0.1,0.2,0.2,0.2h3.4c0.2,0,0.3,0.1,0.3,0.3v1.6
				c0,0.2-0.1,0.3-0.3,0.3h-3.4c-0.1,0-0.2,0.1-0.2,0.2v2.7c0,0.2-0.1,0.3-0.3,0.3H96.3z"/>
			<path fill="#F2F2F2" d="M106.1,27.9c0.1-0.2,0.2-0.3,0.4-0.3h1.8c0.2,0,0.3,0.1,0.4,0.3l3.6,9c0,0.1,0,0.3-0.2,0.3h-2.1
				c-0.2,0-0.3-0.1-0.4-0.3l-0.3-0.9c0-0.1-0.2-0.2-0.3-0.2h-3.3c-0.1,0-0.3,0.1-0.3,0.2l-0.3,0.9c-0.1,0.2-0.2,0.3-0.4,0.3h-2.1
				c-0.1,0-0.2-0.1-0.2-0.3L106.1,27.9z M108.3,33.6c0.1,0,0.2-0.1,0.2-0.2l-0.9-2.3c0-0.1-0.1-0.1-0.2,0l-0.9,2.3
				c0,0.1,0,0.2,0.2,0.2H108.3z"/>
			<path fill="#F2F2F2" d="M113.3,27.9c0-0.2,0.1-0.3,0.3-0.3h4.4c2.4,0,3.6,1.6,3.6,3.5c0,1.3-0.5,2.4-1.7,3.1
				c-0.1,0.1-0.1,0.2-0.1,0.3l1.7,2.4c0.1,0.1,0,0.2-0.1,0.2H119c-0.2,0-0.4-0.1-0.5-0.2l-1.5-2.1c-0.1-0.1-0.2-0.2-0.4-0.2h-0.8
				c-0.1,0-0.2,0.1-0.2,0.2v2c0,0.2-0.1,0.3-0.3,0.3h-1.8c-0.2,0-0.3-0.1-0.3-0.3V27.9z M117.8,29.9h-1.8c-0.1,0-0.2,0.1-0.2,0.2
				v2.1c0,0.1,0.1,0.2,0.2,0.2h1.8c1,0,1.3-0.6,1.3-1.3C119.1,30.4,118.8,29.9,117.8,29.9z"/>
			<path fill="#F2F2F2" d="M125.1,36.9c0,0.2-0.1,0.3-0.3,0.3h-1.8c-0.2,0-0.3-0.1-0.3-0.3v-9c0-0.2,0.1-0.3,0.3-0.3h1.9
				c0.2,0,0.3,0.1,0.4,0.3l2.5,5c0,0.1,0.2,0.1,0.2,0l2.5-5c0.1-0.1,0.3-0.3,0.4-0.3h1.9c0.2,0,0.3,0.1,0.3,0.3v9
				c0,0.2-0.1,0.3-0.3,0.3h-1.8c-0.2,0-0.3-0.1-0.3-0.3v-4.4c0-0.1-0.1-0.1-0.1,0l-1.7,3.5c-0.1,0.1-0.3,0.3-0.4,0.3h-1
				c-0.2,0-0.3-0.1-0.4-0.3l-1.7-3.5c0-0.1-0.1,0-0.1,0V36.9z"/>
		</g>
	</g>
</g>
<g>
	<g>
		<polygon fill="#212A3F" points="157.4,74.2 157.7,74.1 157,74.1 157,74.2 		"/>
		<path fill="#212A3F" d="M173.9,91.7l0.3-5.8L174,80l0.2-5.9l-5.5,0.2l-5.4,0l-4-0.1l0,0.1l-0.5,0.3l-0.9,0.2l-1-0.1l-0.5-0.2
			l0.1-0.2l-4,0l-5.4-0.1l-5.4,0L136,74l-5.4,0.2l-5.4-0.1l-5.4,0l-5.4,0.2l-5.4-0.1l-5.4,0.2L98,74.2l-5.4,0l-5.4,0.1l-5.4,0
			L76.2,74l-5.4,0.3l-5.4-0.1L59.9,74l-5.4,0.1L49,74.3l-5.4-0.1l-5.4,0.2l-5.4-0.2l-5.4,0l-5.4,0.1l-5.4-0.1l-5.4,0l-5.4,0.1
			L0,74.1l0,5.9L0,85.9l0.3,5.8l-0.2,5.9l0,5.9l5.4,0l5.4,0l5.4-0.1l5.4,0.1l5.4-0.2l5.4,0.2l5.4-0.3l5.4,0.2l5.4,0.1l5.4,0l5.4,0
			l5.4-0.2l5.4,0l5.4,0l5.4,0.1l5.4-0.1l5.4,0.2l1.2,0l0.5-0.2l0.3,0.1l0,0.1l3.3,0l5.4-0.1l5.4-0.1l5.4,0l5.4,0.2l5.4-0.1l5.4,0.1
			l5.4,0l5.4,0.1l5.4-0.2l5.4,0.1l5.4-0.1l5.4,0.2l5.4,0l5.5,0l0.1-5.9L173.9,91.7z M6.2,89.3l-0.1-0.4c0-0.1,0-0.1,0.1-0.1l0.4,0.1
			l0.6,1.2l0.2,0.5L6.2,89.3z M10.4,93l-0.6,0.3l-0.9-0.8L8.6,90l0.2-0.8l0.4-0.4l0.3,0.7l0.8,0.9l-1.2,1.1l1.2,0.6L10.4,93z
			 M12.2,77.7l-0.8-0.2l-0.3-0.6l0.2-0.7l0.6,0.1l0.5,0.4l0.5,0.6L12.2,77.7z M15.2,78.5l-0.5,0.4l-0.7,0l0.1-0.7l0.7-0.3l0.7,0
			L15.2,78.5z M17.1,85.8l-0.6-0.4l1.3-0.5l0.4,0.1l0.1,0.6L17.1,85.8z M27.9,92.9l-0.7-0.4l-0.2-0.4l0.5-0.1l0.6,0.5L27.9,92.9z
			 M30.9,80.2l-0.5,0L30.1,80c0.1-0.1,0.1-0.2,0.1-0.2c0.1-0.1,0.1-0.2,0.1-0.3l0.4-0.1l0.5,0.2l0,0.5L30.9,80.2z M33.5,101.7
			l-0.3-0.1l-0.8-0.7l-0.3-0.5l-0.3-0.5l0.5,0l0.6,0.9l0.5,0C33.6,101.2,33.5,101.5,33.5,101.7z M43.5,97.2l-0.7-0.6l0-0.4l0.5,0
			l0.5,0.3L44,97L43.5,97.2z M54.1,95.8l-0.4-0.2L53.5,95l0.3-0.4l0.8,1L54.1,95.8z M58.9,97.8l-0.1-0.3c0,0,0.1-0.1,0.2-0.2l0.4,0
			l0.5,1l0,0.5L58.9,97.8z M65.2,91.4l-0.9-0.1L64,91l0.8-0.4l0.4,0l0.2,0.5L65.2,91.4z M102.3,84.1l-0.4,0.3l-0.6,0l0.1-0.5
			l0.5-0.3l0.6,0L102.3,84.1z M104.9,85.5l-0.4,0.3l-0.6,0l0.1-0.5l0.5-0.3l0.6,0L104.9,85.5z M109.8,79.1l0.2-1l-0.1-0.1l-0.1-0.2
			l-0.1-0.2l0.2,0.4l0.1,0.2l0.1,0.5l0,0.5L109.8,79.1z M113.3,99.7l-1.6,0.1l0.5-0.6l0.5-0.1l0.5,0.2l0.2,0.2
			C113.4,99.6,113.3,99.7,113.3,99.7z M117.6,83.4l-0.3-0.6l0-0.1l-0.1-0.5l0.1-0.4l0.4,0.1l0.2,0.3l0.3,0.5l0,0l0.1,0.1l0.3,0.5
			L117.6,83.4z M125.7,88.9l-0.4-0.4l0-0.5l0.2-0.4l0.4,0.3l0.2,0.5l0.2,0.6L125.7,88.9z M131.3,76.1l-0.2,0
			c-0.1-0.4-0.3-0.7-0.4-1.1l0.1,0c0.2,0.1,0.5,0.2,0.7,0.3l0.2,0.4L131.3,76.1z M144.7,94.1l-0.5,0.1l-0.5-0.2l0.3-0.4l0.6,0
			l0.5,0.2L144.7,94.1z M147.8,86.3l-0.4-0.1l-0.3,0.4l0.4,0.5l0.3,0.5l-1.4-0.3l0.2-0.4l0.6-0.8l0.8-0.2L147.8,86.3z M152,90
			l0.1-0.6l0.2-0.3l0.3,0.2l0.1,0.3l0,0.6L152,90z M155.7,80.1l-0.9-0.3l-0.4-0.4l1.1,0.1l0.3,0.2L155.7,80.1z M160.6,77.8l-0.3,0.4
			l0-0.9l-0.6-1.4l0.3-0.2l0.5,1l0.6,0.1l0,0.8L160.6,77.8z M163.4,81.9l-0.5-0.2l-0.2-0.4c0.1-0.2,0.2-0.4,0.3-0.6l0.2-0.4l0.4,0.3
			l0,0.6L163.4,81.9z"/>
	</g>
	<g>
		<g>
			<path fill="#8AB839" d="M7.5,97.1c-0.3,0-0.5-0.2-0.5-0.5V81c0-0.3,0.2-0.5,0.5-0.5h6.8c4.4,0,6.5,3,6.5,6.4
				c0,3.5-2.1,6.5-6.5,6.5h-2.6c-0.2,0-0.4,0.2-0.4,0.4v2.8c0,0.3-0.2,0.5-0.5,0.5H7.5z M14.1,84.4h-2.4c-0.2,0-0.4,0.2-0.4,0.4V89
				c0,0.2,0.2,0.4,0.4,0.4h2.4c1.8,0,2.5-1.1,2.5-2.6C16.6,85.6,15.9,84.4,14.1,84.4z"/>
			<path fill="#8AB839" d="M21.8,88.8c0-4.8,4-8.6,8.8-8.6c4.9,0,8.8,3.9,8.8,8.6c0,4.8-4,8.6-8.8,8.6
				C25.8,97.5,21.8,93.6,21.8,88.8z M26.1,88.8c0,2.5,2,4.5,4.5,4.5c2.6,0,4.5-2,4.5-4.5c0-2.5-2-4.5-4.5-4.5
				C28.1,84.3,26.1,86.3,26.1,88.8z"/>
			<path fill="#8AB839" d="M40.6,92.7c0-0.3,0.3-0.6,0.6-0.6H44c0.5,0,0.6,0.1,0.9,0.6c0.3,0.6,1.2,1.1,2.7,1.1c1.6,0,2.1-0.5,2.1-1
				c0-0.7-0.8-1.1-2.8-1.8c-2.6-0.9-6.1-2.2-6.1-5.6c0-3.2,2.7-5.2,6.5-5.2c3.9,0,6.6,2,6.8,5c0,0.3-0.3,0.6-0.6,0.6h-3
				c-0.4,0-0.6-0.2-0.7-0.6c-0.3-0.7-1.1-1.3-2.5-1.3c-1.5,0-2,0.6-2,1.1c0,0.7,0.8,1,2.8,1.7c2.3,0.8,6.2,2.2,6.2,5.8
				c0,3.2-2.8,5-6.6,5C43.8,97.5,40.9,95.8,40.6,92.7z"/>
			<path fill="#8AB839" d="M55.6,84.6c-0.3,0-0.5-0.2-0.5-0.5V81c0-0.3,0.2-0.5,0.5-0.5h13.6c0.3,0,0.5,0.2,0.5,0.5v3.1
				c0,0.3-0.2,0.5-0.5,0.5H65c-0.2,0-0.4,0.2-0.4,0.4v11.6c0,0.3-0.2,0.5-0.5,0.5h-3.2c-0.3,0-0.5-0.2-0.5-0.5V85
				c0-0.2-0.2-0.4-0.4-0.4H55.6z"/>
			<path fill="#8AB839" d="M71.8,97.1c-0.3,0-0.5-0.2-0.5-0.5V81c0-0.3,0.2-0.5,0.5-0.5h11.8c0.3,0,0.5,0.2,0.5,0.5v3.1
				c0,0.3-0.2,0.5-0.5,0.5H76c-0.2,0-0.4,0.2-0.4,0.4v1.5c0,0.2,0.2,0.4,0.4,0.4h6.1c0.3,0,0.5,0.2,0.5,0.5v2.8
				c0,0.3-0.2,0.5-0.5,0.5H76c-0.2,0-0.4,0.2-0.4,0.4v1.3c0,0.2,0.2,0.4,0.4,0.4h7.6c0.3,0,0.5,0.2,0.5,0.5v3.1
				c0,0.3-0.2,0.5-0.5,0.5H71.8z"/>
			<path fill="#8AB839" d="M86.2,81c0-0.3,0.2-0.5,0.5-0.5h7.6c4.3,0,6.2,2.8,6.2,6.1c0,2.2-0.9,4.3-2.9,5.3
				c-0.2,0.1-0.3,0.4-0.1,0.6l3.1,4.3c0.1,0.2,0,0.4-0.2,0.4h-4.1c-0.3,0-0.6-0.2-0.8-0.4L92.9,93c-0.1-0.2-0.4-0.3-0.7-0.3h-1.3
				c-0.2,0-0.4,0.2-0.4,0.4v3.5c0,0.3-0.2,0.5-0.5,0.5h-3.2c-0.3,0-0.5-0.2-0.5-0.5V81z M94.1,84.4h-3.2c-0.2,0-0.4,0.2-0.4,0.4v3.6
				c0,0.2,0.2,0.4,0.4,0.4h3.2c1.7,0,2.3-1,2.3-2.2C96.4,85.3,95.8,84.4,94.1,84.4z"/>
			<path fill="#F2F2F2" d="M103,97.1c-0.3,0-0.5-0.2-0.5-0.5V81c0-0.3,0.2-0.5,0.5-0.5h11.3c0.3,0,0.5,0.2,0.5,0.5v3.1
				c0,0.3-0.2,0.5-0.5,0.5h-7.2c-0.2,0-0.4,0.2-0.4,0.4v2.1c0,0.2,0.2,0.4,0.4,0.4h5.9c0.3,0,0.5,0.2,0.5,0.5v2.8
				c0,0.3-0.2,0.5-0.5,0.5h-5.9c-0.2,0-0.4,0.2-0.4,0.4v4.8c0,0.3-0.2,0.5-0.5,0.5H103z"/>
			<path fill="#F2F2F2" d="M120.2,80.9c0.1-0.3,0.4-0.5,0.7-0.5h3.2c0.3,0,0.6,0.2,0.7,0.5l6.3,15.7c0.1,0.2-0.1,0.5-0.3,0.5h-3.6
				c-0.3,0-0.6-0.2-0.7-0.5l-0.6-1.6c-0.1-0.2-0.3-0.4-0.6-0.4h-5.7c-0.3,0-0.5,0.2-0.6,0.4l-0.6,1.6c-0.1,0.3-0.4,0.5-0.7,0.5h-3.6
				c-0.3,0-0.4-0.3-0.3-0.5L120.2,80.9z M123.9,90.8c0.2,0,0.3-0.2,0.3-0.4l-1.5-4.1c0-0.1-0.3-0.1-0.3,0l-1.5,4.1
				c-0.1,0.2,0.1,0.4,0.3,0.4H123.9z"/>
			<path fill="#F2F2F2" d="M132.7,81c0-0.3,0.2-0.5,0.5-0.5h7.6c4.3,0,6.2,2.8,6.2,6.1c0,2.2-0.9,4.3-2.9,5.3
				c-0.2,0.1-0.3,0.4-0.1,0.6l3.1,4.3c0.1,0.2,0,0.4-0.2,0.4h-4.1c-0.3,0-0.6-0.2-0.8-0.4l-2.6-3.7c-0.1-0.2-0.4-0.3-0.7-0.3h-1.3
				c-0.2,0-0.4,0.2-0.4,0.4v3.5c0,0.3-0.2,0.5-0.5,0.5h-3.2c-0.3,0-0.5-0.2-0.5-0.5V81z M140.6,84.4h-3.2c-0.2,0-0.4,0.2-0.4,0.4
				v3.6c0,0.2,0.2,0.4,0.4,0.4h3.2c1.7,0,2.3-1,2.3-2.2C142.9,85.3,142.3,84.4,140.6,84.4z"/>
			<path fill="#F2F2F2" d="M153.3,96.6c0,0.3-0.2,0.5-0.5,0.5h-3.2c-0.3,0-0.5-0.2-0.5-0.5V81c0-0.3,0.2-0.5,0.5-0.5h3.3
				c0.3,0,0.6,0.2,0.7,0.4l4.4,8.7c0.1,0.2,0.3,0.2,0.4,0l4.4-8.7c0.1-0.3,0.4-0.4,0.7-0.4h3.3c0.3,0,0.5,0.2,0.5,0.5v15.6
				c0,0.3-0.2,0.5-0.5,0.5h-3.2c-0.3,0-0.5-0.2-0.5-0.5V89c0-0.1-0.1-0.1-0.2,0l-3,6.1c-0.1,0.3-0.4,0.4-0.7,0.4h-1.8
				c-0.3,0-0.6-0.2-0.7-0.4l-3-6.1c0-0.1-0.2-0.1-0.2,0V96.6z"/>
		</g>
	</g>
</g>
<rect x="0" y="-34" fill="none" width="174.3" height="98"/>
</svg>
