<?xml version="1.0" encoding="utf-8"?>
<!-- Generator: Adobe Illustrator 18.0.0, SVG Export Plug-In . SVG Version: 6.00 Build 0)  -->
<!DOCTYPE svg PUBLIC "-//W3C//DTD SVG 1.1//EN" "http://www.w3.org/Graphics/SVG/1.1/DTD/svg11.dtd">
<svg version="1.1" id="Layer_1" xmlns="http://www.w3.org/2000/svg" xmlns:xlink="http://www.w3.org/1999/xlink" x="0px" y="0px"
	 viewBox="0 0 1280 800" enable-background="new 0 0 1280 800" xml:space="preserve">
<g>
	<g>
		<polygon fill="none" points="683.8,147.9 685.8,146.6 685.8,147.2 683.1,149.2 681.1,149.9 679.1,149.9 679.1,151.9 681.1,151.9 
			685.1,150.6 687.8,148.6 689.1,146.6 687.1,145.2 687.8,144.6 685.1,142.6 684.4,144.6 681.8,147.2 679.8,147.2 677.8,147.2 
			677.8,149.2 679.8,149.2 		"/>
		<polygon fill="none" points="681.8,127.2 682.4,122.5 680.4,122.5 679.1,127.2 682.4,127.9 		"/>
		<polygon fill="none" points="720.5,135.2 721.8,133.9 719.8,131.2 717.8,131.2 717.8,133.9 719.1,135.9 		"/>
		<polygon fill="none" points="735.8,291.3 735.1,291.3 735.1,291.3 		"/>
		<polygon fill="none" points="691.1,137.9 693.1,140.6 695.1,140.6 694.4,138.6 691.1,136.6 692.4,135.2 693.1,133.2 691.1,131.2 
			689.8,131.2 688.4,133.2 690.4,136.6 		"/>
		<polygon fill="none" points="673.8,289.3 673.1,289.3 673.8,290 		"/>
		<polygon fill="none" points="539.7,296.7 541.7,301.3 549,308.7 555,312.7 556.4,317.3 557.7,320 558.4,320 565,321.3 573,326.7 
			578.4,327.3 575.7,322.7 560.4,312 553,305.3 551,301.3 543.7,294.7 541,291.3 541,290.7 536.3,290.7 533.7,290.7 535,292.7 		"/>
		<polygon fill="none" points="359.6,332.7 356.9,332 356.2,334.7 357.6,336.7 360.2,338 363.6,336.7 361.6,334.7 		"/>
		<polygon fill="none" points="727.1,109.9 725.8,108.5 721.1,107.9 722.5,110.5 		"/>
		<polygon fill="none" points="571.7,296 593,306.7 595.7,310 601,306 599,304 593,300.7 591.7,299.3 591.7,296 586.4,297.3 
			579.7,291.3 577.7,292 569,291.3 569,291.3 		"/>
		<polygon fill="none" points="633.7,294 635.7,293.3 635.1,291.3 633.7,290 631.7,290 631.1,292 		"/>
		<polygon fill="none" points="590.4,145.2 602.4,139.9 606.4,137.9 613.1,137.9 621.1,135.9 626.4,137.2 631.7,135.2 651.1,136.6 
			653.7,135.9 657.1,139.9 660.4,138.6 667.1,140.6 669.1,139.2 669.1,136.6 664.4,134.6 661.7,134.6 641.1,127.9 635.7,130.6 
			633.7,129.2 629.1,128.6 609.1,131.2 606.4,131.2 604.4,135.2 594.4,139.2 584.4,144.6 570.4,154.6 576.4,155.2 582.4,149.9 		"/>
		<polygon fill="none" points="731.1,112.5 732.5,113.2 733.1,111.2 732.5,109.9 730.5,108.5 728.5,109.2 729.1,111.2 		"/>
		<polygon fill="none" points="344.9,352.7 342.2,349.4 340.9,347.4 338.9,348.7 338.2,352 339.6,361.4 342.9,364 344.9,362.7 
			344.9,359.4 340.2,357.4 		"/>
		<polygon fill="none" points="694.4,153.9 693.1,151.2 691.1,151.9 687.8,149.2 687.1,150.6 689.1,151.9 688.4,152.6 691.1,155.2 
			695.1,155.2 		"/>
		<polygon fill="none" points="519.7,145.2 520.3,141.2 526.3,134.6 537,121.9 541.7,119.2 542.3,117.2 543.7,115.2 561,103.2 
			581,93.2 585.7,92.5 597,87.2 603,87.2 607.7,85.2 610.4,83.9 630.4,83.9 643.7,82.5 648.4,84.5 653.7,85.2 658.4,83.9 
			660.4,82.5 660.4,80.5 657.7,79.2 655.1,79.2 652.4,79.2 645.1,78.5 643.1,79.2 640.4,77.2 637.7,76.5 609.1,79.2 596.4,83.2 
			589.7,82.5 571,93.2 561.7,97.2 559,97.9 551,102.5 539.7,113.2 534.3,116.5 524.3,127.2 515.7,139.2 507,148.6 504.3,155.9 
			511,156.6 513,152.6 		"/>
		<polygon fill="none" points="561,133.9 577.7,121.2 581,119.9 583,120.5 588.4,116.5 591.7,116.5 596.4,113.9 612.4,109.9 
			619.1,109.9 623.7,107.9 633.1,107.2 636.4,106.5 661.7,110.5 666.4,109.2 665.1,107.2 661.1,104.5 644.4,102.5 642.4,101.9 
			637.1,103.9 629.1,101.2 611.1,103.9 607,106.5 602.4,106.5 589.7,109.2 586.4,112.5 577,116.5 572.4,119.2 568.4,122.5 
			561,125.9 553,133.2 547,137.2 535.7,153.2 535,153.9 536.3,153.9 543,153.9 546.3,147.2 		"/>
		<polygon fill="none" points="659.7,128.6 658.4,130.6 658.4,132.6 659.7,133.9 662.4,127.9 660.4,127.2 		"/>
		<polygon fill="none" points="729.8,137.2 730.5,139.2 732.5,139.9 735.1,139.2 735.1,137.2 733.8,135.9 730.5,135.2 		"/>
		<polygon fill="none" points="925.9,71.9 925.2,79.9 928.6,82.5 930.6,81.9 930.6,79.9 927.2,68.5 927.9,66.5 921.2,65.2 
			921.9,69.9 		"/>
		<polygon fill="none" points="962.6,53.8 963.9,51.8 961.3,52.5 958.6,53.8 957.9,55.8 960.6,55.8 		"/>
		<polygon fill="none" points="955.9,65.8 956.6,64.5 955.9,62.5 953.9,62.5 949.9,64.5 951.9,65.8 		"/>
		<path fill="none" d="M330.2,357.4l-1.3-0.7v0.7l0.7,1.3l4.7,4.7l-0.7-2L330.2,357.4z"/>
		<polygon fill="none" points="675.8,366 676.4,367.4 677.8,369.4 679.1,370.7 680.4,370 677.1,364.7 		"/>
		<polygon fill="none" points="697.1,308.7 695.8,308.7 691.8,310 693.1,310.7 697.1,310 		"/>
		<polygon fill="none" points="647.1,292.7 644.4,289.3 643.1,290.7 643.7,292.7 645.7,293.3 		"/>
		<polygon fill="none" points="674.4,308 671.8,305.3 671.1,303.3 669.8,304.7 669.1,307.3 670.4,314.7 673.1,317.3 675.1,316.7 
			675.1,313.3 671.1,311.3 		"/>
		<path fill="none" d="M651.7,290.7h-1.3l-0.7,0.7l0.7,1.3l4,4v-2L651.7,290.7z"/>
		<polygon fill="none" points="649.7,351.4 647.1,353.4 645.1,356.7 644.4,358.7 647.1,359.4 647.7,357.4 649.1,354 650.4,352.7 
			652.4,352.7 651.7,350.7 		"/>
		<polygon fill="none" points="682.4,342 680.4,342.7 681.1,345.4 682.4,345.4 685.8,344 684.4,342.7 		"/>
		<polygon fill="none" points="695.1,348.7 695.8,350.7 695.1,352.7 697.1,354.7 699.1,353.4 703.1,354.7 703.1,353.4 697.8,350.7 
					"/>
		<polygon fill="none" points="372.2,337.3 373.6,334.7 370.9,334 368.2,335.3 367.6,338 370.2,338.7 		"/>
		<path fill="none" d="M711.1,294.7h-2l-2,2.7l6-0.7l0.7-0.7l-0.7-0.7L711.1,294.7z"/>
		<polygon fill="none" points="711.8,309.3 711.1,310.7 712.4,313.3 714.4,314 713.8,312 		"/>
		<path fill="none" d="M635.7,321.3c0,1.3,0,2,0,3.3l5.3-1.3l-2-2H635.7z"/>
		<path fill="none" d="M604.4,292h-2l1.3,2l0.7,2l2.7,2.7l0.7,0.7c0-1.3,0-2,0-3.3h-2L604.4,292z"/>
		<path fill="none" d="M599,334.7l-1.3,0.7c0,0.7,0,0.7-0.7,1.3l-0.7,0.7l1.3,0.7h2l1.3-1.3v-2L599,334.7z"/>
		<polygon fill="none" points="616.4,364 616.4,366 617.1,367.4 623.1,366.7 622.4,364.7 617.7,362 		"/>
		<path fill="none" d="M618.4,325.3c0-0.7,0-1.3,0-2l-6-2.7l-1.3,1.3l2.7,2.7l3.3,0.7H618.4z"/>
		<polygon fill="none" points="374.9,344.7 369.6,346.7 372.2,348 376.9,347.4 376.9,345.4 		"/>
		<polygon fill="none" points="539.7,324.7 533.7,319.3 534.3,316 531.7,316 527.7,313.3 517.7,300.7 519,294.7 516.3,294.7 
			509.7,298 509.7,298.7 511,302.7 513,303.3 516.3,310 519.7,312.7 522.3,318 545,339.3 549,341.4 551,341.4 553.7,337.3 
			539,327.3 		"/>
		<polygon fill="none" points="635.1,370.7 633.1,370.7 631.7,372 633.1,374 637.1,375.4 637.7,374 636.4,372 		"/>
		<polygon fill="none" points="637.1,342 635.7,343.4 635.1,344.7 638.4,346.7 639.7,346 639.1,343.4 		"/>
		<path fill="none" d="M621.7,384c-2,2-4.7,2.7-7.3,2l-0.7,0.7l2,2l4,0.7l3.3-2.7l0.7-1.3L621.7,384L621.7,384z"/>
		<path fill="#212A3F" d="M504.3,155.9l2.7-7.3l8-8.7l8.7-12l10.7-11.3l4.7-2.7l12-11.3l8-4.7l2.7-0.7l9.3-4l18.7-10.7l6.7,0.7
			l12.7-4l28.7-2.7l3.3,0.7l2.7,2l2-0.7l7.3,0.7l2.7-0.7h2.7l2.7,1.3l-0.7,2l-1.3,2l-4.7,0.7l-6-0.7l-4-2l-13.3,1.3h-20.7l-2.7,2
			l-4.7,1.3l-5.3,0.7l-12,5.3l-4.7,0.7l-20,10l-16.7,11.3l-2,2l-0.7,2l-4.7,2.7l-10,12.7l-6.7,6.7l-0.7,4l-6.7,8l-2,4l5.3,0.7
			l19.3-2.7l0.7-0.7l11.3-16.7l6-4l8-7.3l7.3-3.3l3.3-3.3l4.7-2.7l9.3-3.3l3.3-3.3l12.7-2.7h4.7l4-2.7l18.7-2l8,2l5.3-2l2,0.7
			l16.7,2.7l4,2.7l1.3,2l-5.3,0.7l-25.3-4.7l-2.7,0.7l-9.3,0.7l-5.3,2h-7.3l-16,4l-4.7,2.7h-4l-4.7,3.3H581l-2.7,1.3l-16.7,12.7
			l-14.7,14l-4,6.7h14l13.3,0.7l14-10.7l10-4.7l10-4l2.7-3.3h2.7l20-3.3l4.7,0.7l2,1.3l4.7-2.7l20.7,6.7h2.7l4.7,2l0.7,2.7l-2,1.3
			l-7.3-2l-3.3,0.7l-3.3-3.3l-2.7,0.7l-19.3-1.3l-5.3,2l-5.3-2l-8,2h-6.7l-4,2l-12,5.3l-7.3,4.7l-6,5.3h2h20.7l20.7,0.7l20.7-0.7
			h20.7l20.7-1.3l8.7,0.7l-2.7-2l0.7-0.7l-2-2l0.7-1.3l3.3,2.7l2-0.7l1.3,2.7l0,0l0.7,1.3l7.3,0.7l20.7-2l20.7,1.3l20.7-1.3h21.3
			h9.3l72-36.7l7.3-5.3h2.7l10.7-4.7l3.3,2l1.3,2.7l3.3,4l4,2l4,0.7l2-1.3l16.7-14.7l4-2l11.3-12l6.7-6l20-16.7h-1.3l-1.3,1.3v-0.7
			l-2-0.7l2-0.7c0,0,0,0,0-0.7l0.7-2l2.7,0.7l0.7,0.7l1.3,0.7v2h-1.3v1.3l7.3-6v-2l2-4v-2l-5.3-7.3l-17.3,0l-4.7,2l0.7,1.3h0.7l2,2
			l2,2l-2.7,0.7h-0.7l0,0l-2-0.7l-2.7-4.7l0.7-0.7l-2,1.3h-6.7l-16.7,5.3l-1.3,4.7l-0.7,2l-1.3-0.7l-0.7-2l1.3-1.3v-1.3l-1.3,0.7
			l-8.7,0.7l-1.3,1.3l2,2.7v2l-2.7,0.7l0-3.3v-1.3l-20.7,3.3l-5.3,2l-3.3,2.7l-2,3.3l-0.7,4l2,6l2.7,4l-2,3.3l-10,6.7l-8.7,2.7
			l-77.4,39.4l-10.7-17.3l-6.7-8.7l-6.7-4v-2l-2.7-3.3l-8-6.7l-1.3-2.7l-17.3-12l-17.3-10.7l-9.3-3.3l-10-5.3l-2.7,0.7l-11.3-4.7
			l-20-3.3l-42-0.7l-20,3.3l-28.7,11.3l-18,9.3l-16,11.3L517,100.5l-14.7,15.3l-12,16l-10,18l-1.3,4l16,1.3L504.3,155.9z
			 M659.7,133.9l-1.3-1.3v-1.3l1.3-2l1.3-1.3l2,0.7L659.7,133.9z M958.6,53.8l2.7-1.3h2.7l-1.3,2l-2,1.3h-2.7L958.6,53.8z
			 M953.9,62.5h2l0.7,2l-0.7,1.3l-4.7-0.7l-2-1.3L953.9,62.5z M927.9,66.5l-0.7,2.7l3.3,10.7l0.7,2.7h-2l-3.3-2l0.7-8l-4-2l-0.7-4.7
			L927.9,66.5z M735.1,137.2v2l-2.7,0.7l-2-0.7l-1.3-2l0.7-2l4,0.7L735.1,137.2z M730.5,108.5l2,0.7l0.7,1.3v2h-2l-1.3-1.3l-1.3-2
			L730.5,108.5z M725.8,108.5l1.3,1.3l-5.3,0.7l-1.3-2.7L725.8,108.5z M717.8,131.2h1.3l2,2.7l-1.3,1.3l-0.7,0.7l-1.3-2V131.2z
			 M689.8,131.2h2l1.3,1.3l-0.7,2.7l-1.3,1.3l3.3,2v2h-1.3l-2-2l-0.7-2l-2-3.3L689.8,131.2z M680.4,122.5l2,0.7l-0.7,4l1.3,0.7
			l-4-0.7L680.4,122.5z M677.8,147.2l2,0.7l1.3-0.7l2.7-2.7l0.7-2l2.7,1.3l-0.7,1.3l2,1.3l-1.3,2l-2.7,2l-4,1.3h-2v-2l2,0.7l1.3-0.7
			l2.7-2.7v-0.7l-2,2l-4,1.3h-2L677.8,147.2z"/>
		<path fill="#212A3F" d="M765.1,291.3l-20.7,0.7h-8.7l0,0l0,0h-12l-20.7-2.7l-20.7,0.7h-8l0,0h-0.7h-12l-20.7-0.7l-6.7,0.7l2,1.3
			l0.7,2l-2,0.7l-2.7-2.7V290l-12,1.3l-20.7-2l-18.7,2l6.7,5.3l5.3-0.7v2.7l1.3,2l6,2.7l2,2.7l-5.3,3.3l-4-2.7l-21.3-11.3l-2.7-4.7
			l0,0l-11.3-0.7l-16.7,0.7v0.7l2.7,4l7.3,6.7l2.7,4l6.7,6.7l15.3,10l3.3,5.3l-6-1.3l-8.7-5.3l-6.7-2H557l-1.3-3.3l-1.3-4l-6-4.7
			L541,300l-2-4.7l-4.7-4l-1.3-2l-18-2l-20.7,3.3l-16.7-2.7l0.7,2l-22,11.3l-2,2.7l-4.7,0.7l-6.7,5.3h-2.7l-6.7,4l-8,4.7l-3.3,2
			l-1.3,1.3h0.7l1.3,1.3l-0.7,0.7h-4.7l-6,2l-12.7,6.7l-8-2h-4.7l-1.3-2l-16.7-4.7l-8-1.3l-2,0.7h2l1.3,1.3l-3.3,2l-2,0.7l-1.3-0.7
			l-0.7,0.7l-3.3,4l1.3,5.3l2.7,3.3l7.3,3.3l2.7,2l0,0l0,0l0.7,0.7l1.3,2l-1.3,1.3l-3.3,2h-4l-12.7-4.7l-15.3-4.7v0.7l-0.7,2
			l-1.3-0.7l-0.7-2l0,0l-1.3-2h-3.3l-3.3,1.3l-2.7,5.3v4.7l2,6h2l4-1.3v2.7l2.7,2.7l4.7,2l1.3,1.3l-4.7,4l-8.7,4.7l-7.3,5.3
			l-2.7,3.3l-1.3,4l4,7.3l8,1.3l4-2.7l4.7-0.7l10-6l3.3-1.3l1.3,0.7l0.7,2v4l-1.3,7.3l0.7,4.7l2,4.7l5.3,1.3l5.3-1.3l3.3-3.3l1.3-6
			l3.3-5.3l0.7-7.3l2.7-3.3l2.7-9.3l2-4.7l2-1.3l2.7,0.7l1.3,1.3v2l-3.3,10l1.3,4.7l3.3,3.3l4,1.3h4l4-1.3l2-2l8-24l3.3-12.7
			l26-13.3l8-4.7h2.7l5.3-4l8-2.7l1.3-2l6.7-2l7.3-4.7h2.7l6-4l10-5.3l4,8l7.3,6.7l2,5.3l3.3,2.7l10.7,12l14.7,12.7l16.7,10.7
			l18,10.7l20,7.3l20,4l9.3,3.3l4.7-0.7l28.7,0.7l10.7-2.7l2,0.7l4.7-2l10-2l20-6l18-8l18.7-10.7l7.3-6l14.7-13.3l20.7-22l12.7-23.3
			l4-5.3l0.7-2.7h-5.3L765.1,291.3z M360.2,338l-2.7-0.7l-1.3-2l0.7-2.7l2.7,0.7l2,2l2,2L360.2,338z M328.9,358.7l-0.7-1.3v-0.7
			l1.3,0.7l2.7,4.7l0.7,2L328.9,358.7z M344.9,362.7l-2,1.3l-3.3-2.7l-1.3-9.3l0.7-3.3l1.3-1.3l1.3,2.7l2.7,3.3l-4.7,4l4.7,2
			L344.9,362.7z M367.6,338l0.7-2.7l2.7-1.3h2.7l-1.3,3.3l-2,1.3L367.6,338z M372.2,348l-2.7-1.3l5.3-2l1.3,0.7v2L372.2,348z
			 M551,341.4l-2-0.7l-4-2L522.3,318l-2.7-5.3l-3.3-2.7l-3.3-6l-1.3-0.7l-1.3-4v-0.7l6.7-3.3l2.7-0.7l-1.3,6l10,13.3l4,2h2.7
			l-0.7,3.3l5.3,5.3v2.7l14,10L551,341.4z M622.4,364.7v1.3l-5.3,1.3l-1.3-1.3l0.7-2l1.3-2L622.4,364.7z M599.7,338.7h-2l-1.3-0.7
			l0.7-0.7c0-0.7,0.7-0.7,0.7-1.3l1.3-0.7l2,0.7v2L599.7,338.7z M608.4,298.7l-0.7-0.7l-2.7-2.7l-0.7-2l-1.3-2h2l2.7,3.3h2
			C609.1,296.7,608.4,297.3,608.4,298.7z M611.1,322l1.3-1.3l6,2c0,0.7,0,1.3,0,2l-1.3,0.7l-3.3-0.7L611.1,322z M622.4,387.4
			l-3.3,2.7l-4-0.7l-1.3-2.7l0.7-0.7c2.7,0.7,5.3,0.7,7.3-2h0.7l0.7,1.3L622.4,387.4z M637.1,375.4l-4-2l-1.3-2l1.3-1.3h2l1.3,1.3
			l0.7,2V375.4z M638.4,346.7l-2.7-2l0.7-1.3l1.3-1.3l2,1.3l0.7,2.7L638.4,346.7z M635.7,324.7c0-1.3,0-2,0-3.3l3.3,0.7l2,1.3
			L635.7,324.7z M643.1,290.7l1.3-1.3l3.3,4l-2,0l-1.3-0.7L643.1,290.7z M650.4,352.7l-1.3,0.7l-2,3.3v2l-3.3-0.7l0.7-2l2-3.3
			l3.3-2.7l2-0.7l0.7,2L650.4,352.7z M649.7,292l-0.7-1.3l0.7-0.7h1.3l2,4v2L649.7,292z M675.1,316.7l-2,0.7l-2.7-2.7l-1.3-8
			l0.7-2.7l1.3-1.3l1.3,2l2.7,2.7l-3.3,3.3l4,2L675.1,316.7z M679.1,370.7l-1.3-0.7l-1.3-2l-0.7-1.3l1.3-1.3l4,5.3H679.1z
			 M682.4,345.4h-2l-0.7-2.7l2-0.7l2,0.7l1.3,1.3L682.4,345.4z M693.1,310.7l-2-0.7l4-1.3l1.3,0.7v1.3H693.1z M703.1,354.7l-4-1.3
			l-2,1.3l-2-2l0.7-2v-2l2.7,2.7l5.3,2L703.1,354.7z M712.4,313.3l-1.3-2.7l1.3-1.3l2,2.7v2L712.4,313.3z M713.8,296.7l-6,0.7l2-2.7
			h2l2,0.7L713.8,296.7L713.8,296.7z"/>
	</g>
	<g>
		<polygon fill="#212A3F" points="909.2,167.2 909.9,166.6 907.2,166.6 907.2,166.6 		"/>
		<path fill="#212A3F" d="M971.9,234l1.3-22.7l-0.7-22.7l0.7-22.7l-20.7,0.7h-20.7l-15.3-0.7l0,0l-2,1.3l-3.3,0.7l-4-0.7l-2-0.7
			l0.7-0.7h-15.3h-20.7h-20.7h-20.7l-20.7,0.7h-22h-20.7l-20.7,0.7l-21.3-0.7l-20.7,0.7l-20.7-0.7h-20.7l-20.7,0.7h-20.7l-20.7-1.3
			l-20.7,1.3h-20.7l-21.3-0.7h-20.7l-20.7,0.7l-20.7-0.7l-20.7,0.7l-21.3-0.7h-20.7l-20.7,0.7l-20.7-0.7h-20.7l-20.7,0.7l-21.3-0.7
			v22.7v22.7l0.7,22.7l-0.7,22.7V280h20.7h20.7h20.7l20.7,0.7l20.7-0.7l20.7,0.7l20.7-0.7l20.7,0.7l20.7,0.7h20.7H535l20.7-0.7h20.7
			H597l20.7,0.7l20.7-0.7l20.7,0.7h4.7l2-0.7l1.3,0.7l0,0h12.7l20.7-0.7h20.7h20.7l20.7,0.7h20.7l20.7,0.7h20.7h20.7l20.7-0.7
			l20.7,0.7l20.7-0.7l20.7,0.7h20.7h20.7l0.7-22.7L971.9,234z M331.5,224.6l-0.7-1.3v-0.7l1.3,0.7l2.7,4.7l0.7,2L331.5,224.6z
			 M346.9,238.6l-2,1.3l-3.3-2.7l-1.3-9.3l0.7-3.3l1.3-1.3l1.3,2.7l2.7,3.3l-4.7,4l4.7,2L346.9,238.6z M354.2,179.9l-2.7-0.7l-1.3-2
			l0.7-2.7l2.7,0.7l2,2l2,2L354.2,179.9z M365.6,183.3l-2,1.3h-2.7l0.7-2.7l2.7-1.3h2.7L365.6,183.3z M372.9,211.3l-2-1.3l5.3-2
			l1.3,0.7v2L372.9,211.3z M414.3,238.6l-2.7-2l-0.7-1.3l2-0.7l2,2L414.3,238.6z M425.6,189.9h-2l-1.3-0.7l0.7-0.7
			c0-0.7,0.7-0.7,0.7-1.3l1.3-0.7l2,0.7v2L425.6,189.9z M435.6,272l-0.7-0.7l-2.7-2.7l-0.7-2l-1.3-2h2l2.7,3.3h2
			C435.6,270,435.6,271.3,435.6,272z M473.6,254.6L471,252v-1.3h2l2,1.3l0.7,2L473.6,254.6z M514.3,249.3l-1.3-0.7l-1.3-2l1.3-1.3
			l3.3,4L514.3,249.3z M532.3,256.6V256l0.7-0.7h1.3l2,4v2L532.3,256.6z M557,232.6l-3.3-0.7l-1.3-0.7l3.3-1.3h1.3l0.7,2L557,232.6z
			 M698.4,204.6l-1.3,1.3h-2l0.7-2l2-1.3h2L698.4,204.6z M708.4,209.9l-1.3,1.3h-2l0.7-2l2-1.3h2L708.4,209.9z M727.1,185.9l0.7-4
			v-0.7l-0.7-0.7l-0.7-0.7l0.7,1.3l0.7,0.7v2v2L727.1,185.9z M740.5,264l-6,0.7l2-2.7h2l2,0.7L740.5,264L740.5,264z M757.1,201.9
			l-1.3-2.7l0,0l-0.7-2l0.7-1.3l1.3,0.7l0.7,1.3l1.3,2l0,0h0l1.3,2H757.1z M787.8,222.6l-1.3-1.3v-2l0.7-1.3l1.3,1.3l0.7,2l0.7,2
			L787.8,222.6z M809.2,173.9h-0.7c-0.7-1.3-1.3-2.7-1.3-4l0,0c0.7,0.7,2,0.7,2.7,1.3l0.7,1.3L809.2,173.9z M860.5,242.6l-2,0.7
			l-2-0.7l1.3-2h2l2,0.7L860.5,242.6z M871.9,213.3h-1.3l-1.3,2l1.3,2l1.3,2l-5.3-1.3l0.7-1.3l2.7-3.3l3.3-0.7L871.9,213.3z
			 M888.6,227.3v-2l0.7-1.3l1.3,0.7l0.7,1.3v2L888.6,227.3z M902.6,189.3l-3.3-1.3l-1.3-1.3l4,0.7l1.3,0.7L902.6,189.3z
			 M921.2,180.6l-1.3,2v-3.3l-2-5.3l1.3-0.7l2,4h2v2.7L921.2,180.6z M931.9,195.9l-2-0.7l-0.7-1.3c0.7-0.7,0.7-1.3,1.3-2l0.7-1.3
			l1.3,1.3v2L931.9,195.9z"/>
	</g>
	<g>
		<g>
			<path fill="#8AB839" d="M336.2,254.6c-1.3,0-2-0.7-2-2v-60c0-1.3,0.7-2,2-2h26c16.7,0,24.7,11.3,24.7,24.7
				c0,13.3-8,24.7-24.7,24.7h-10c-0.7,0-1.3,0.7-1.3,1.3V252c0,1.3-0.7,2-2,2h-12.7V254.6z M361.6,205.9h-9.3
				c-0.7,0-1.3,0.7-1.3,1.3v16c0,0.7,0.7,1.3,1.3,1.3h9.3c6.7,0,9.3-4,9.3-10C370.9,210.6,368.2,205.9,361.6,205.9z"/>
			<path fill="#8AB839" d="M390.2,222.6c0-18,15.3-33.4,34-33.4s34,14.7,34,33.4c0,18-15.3,33.4-34,33.4
				C406.3,256,390.2,240.6,390.2,222.6z M406.9,222.6c0,9.3,8,17.3,17.3,17.3c10,0,17.3-7.3,17.3-17.3c0-9.3-7.3-17.3-17.3-17.3
				C414.9,205.3,406.9,213.3,406.9,222.6z"/>
			<path fill="#8AB839" d="M462.3,238c0-1.3,0.7-2,2-2h11.3c2,0,2,0.7,3.3,2c1.3,2,4.7,4,10,4c6,0,8-2,8-4c0-2.7-3.3-4-10.7-6.7
				c-10-3.3-23.3-8-23.3-21.3c0-12,10.7-20,24.7-20c14.7,0,25.3,8,26,19.3c0,1.3-0.7,2-2,2h-11.3c-1.3,0-2-0.7-2.7-2
				c-0.7-2.7-4-5.3-9.3-5.3c-5.3,0-8,2-8,4c0,2.7,2.7,4,10.7,6.7c8.7,3.3,24,8,24,22c0,12.7-10.7,18.7-25.3,18.7
				C475,256,463.6,249.3,462.3,238z"/>
			<path fill="#8AB839" d="M519.7,206.6c-1.3,0-2-0.7-2-2v-12c0-1.3,0.7-2,2-2h52c1.3,0,2,0.7,2,2v12c0,1.3-0.7,2-2,2h-16
				c-0.7,0-1.3,0.7-1.3,1.3v44c0,1.3-0.7,2-2,2h-12.7c-1.3,0-2-0.7-2-2v-44c0-0.7-0.7-1.3-1.3-1.3L519.7,206.6L519.7,206.6z"/>
			<path fill="#8AB839" d="M581.7,254.6c-1.3,0-2-0.7-2-2v-60c0-1.3,0.7-2,2-2h44.7c1.3,0,2,0.7,2,2v12c0,1.3-0.7,2-2,2h-28.7
				c-0.7,0-1.3,0.7-1.3,1.3v6c0,0.7,0.7,1.3,1.3,1.3h23.3c1.3,0,2,0.7,2,2v10.7c0,1.3-0.7,2-2,2h-23.3c-0.7,0-1.3,0.7-1.3,1.3v4.7
				c0,0.7,0.7,1.3,1.3,1.3h28.7c1.3,0,2,0.7,2,2v12c0,1.3-0.7,2-2,2h-44.7V254.6z"/>
			<path fill="#8AB839" d="M636.4,192.6c0-1.3,0.7-2,2-2h29.4c16,0,24,10.7,24,23.3c0,8.7-3.3,16-11.3,20.7c-0.7,0.7-0.7,1.3-0.7,2
				l11.3,16c0.7,0.7,0,1.3-0.7,1.3h-15.3c-1.3,0-2.7-0.7-3.3-1.3l-10-14c-0.7-0.7-1.3-1.3-2.7-1.3h-5.3c-0.7,0-1.3,0.7-1.3,1.3V252
				c0,1.3-0.7,2-2,2h-12c-1.3,0-2-0.7-2-2L636.4,192.6L636.4,192.6z M667.1,205.9h-12c-0.7,0-1.3,0.7-1.3,1.3v14
				c0,0.7,0.7,1.3,1.3,1.3h12c6.7,0,8.7-4,8.7-8.7C675.8,209.3,673.1,205.9,667.1,205.9z"/>
			<path fill="#F2F2F2" d="M701.1,254.6c-1.3,0-2-0.7-2-2v-60c0-1.3,0.7-2,2-2h43.4c1.3,0,2,0.7,2,2v12c0,1.3-0.7,2-2,2h-27.4
				c-0.7,0-1.3,0.7-1.3,1.3v8c0,0.7,0.7,1.3,1.3,1.3h22.7c1.3,0,2,0.7,2,2v10.7c0,1.3-0.7,2-2,2h-22.7c-0.7,0-1.3,0.7-1.3,1.3v18
				c0,1.3-0.7,2-2,2h-12.7V254.6z"/>
			<path fill="#F2F2F2" d="M766.5,192.6c0.7-1.3,1.3-2,2.7-2h12c1.3,0,2,0.7,2.7,2l24,60c0,0.7,0,2-1.3,2h-14c-1.3,0-2-0.7-2.7-2
				l-2-6c0-0.7-1.3-1.3-2-1.3h-22c-0.7,0-2,0.7-2,1.3l-2,6c-0.7,1.3-1.3,2-2.7,2h-14c-0.7,0-1.3-0.7-1.3-2L766.5,192.6z
				 M781.2,230.6c0.7,0,1.3-0.7,1.3-1.3l-6-15.3c0-0.7-0.7-0.7-1.3,0l-6,15.3c0,0.7,0,1.3,1.3,1.3H781.2z"/>
			<path fill="#F2F2F2" d="M814.5,192.6c0-1.3,0.7-2,2-2h29.4c16,0,24,10.7,24,23.3c0,8.7-3.3,16-11.3,20.7c-0.7,0.7-0.7,1.3-0.7,2
				l11.3,16c0.7,0.7,0,1.3-0.7,1.3h-16c-1.3,0-2.7-0.7-3.3-1.3l-10-14c-0.7-0.7-1.3-1.3-2.7-1.3h-5.3c-0.7,0-1.3,0.7-1.3,1.3V252
				c0,1.3-0.7,2-2,2h-12c-1.3,0-2-0.7-2-2v-59.4H814.5z M844.5,205.9h-12c-0.7,0-1.3,0.7-1.3,1.3v14c0,0.7,0.7,1.3,1.3,1.3h12
				c6.7,0,8.7-4,8.7-8.7C853.2,209.3,851.2,205.9,844.5,205.9z"/>
			<path fill="#F2F2F2" d="M893.2,252.6c0,1.3-0.7,2-2,2h-12c-1.3,0-2-0.7-2-2v-60c0-1.3,0.7-2,2-2h12.7c1.3,0,2,0.7,2.7,2
				l16.7,33.4c0,0.7,1.3,0.7,1.3,0l16.7-33.4c0.7-0.7,2-2,2.7-2h12.7c1.3,0,2,0.7,2,2v60c0,1.3-0.7,2-2,2h-12c-1.3,0-2-0.7-2-2
				v-29.4c0-0.7-0.7-0.7-0.7,0l-11.3,23.3c-0.7,0.7-2,2-2.7,2h-6.7c-1.3,0-2-0.7-2.7-2l-11.3-23.3c0-0.7-0.7,0-0.7,0v29.4H893.2z"/>
		</g>
	</g>
</g>
<g>
	<g>
		<polygon fill="#212A3F" points="1133,520.7 1135.1,520 1130.2,520 1130.2,520.7 		"/>
		<path fill="#212A3F" d="M1248.8,643.5l2.1-40.7l-1.4-41.4l1.4-41.4l-38.6,1.4h-37.9l-28.1-0.7v0.7l-3.5,2.1l-6.3,1.4l-7-0.7
			l-3.5-1.4l0.7-1.4h-28.1l-37.9-0.7h-37.9l-40-1.4l-37.9,1.4L907,520h-37.9l-37.9,1.4l-37.9-0.7l-37.9,1.4l-39.3-1.4h-37.9
			l-37.9,0.7h-37.9l-39.3-2.1l-37.9,2.1l-37.9-0.7l-38.6-1.4l-37.9,0.7l-38.6,1.4l-37.9-0.7l-37.9,1.4l-37.9-1.4h-37.9l-37.9,0.7
			l-37.9-0.7H107l-37.9,0.7L28.4,520v41.4v41.4l2.1,40.7l-1.4,41.4v41.4H67h37.9l37.9-0.7l37.9,0.7l37.9-1.4l37.9,1.4l37.9-2.1
			l37.9,1.4l37.9,0.7h37.9H446l37.9-1.4h37.9h37.9l37.9,0.7l37.9-0.7l37.9,1.4h8.4l3.5-1.4l2.1,0.7v0.7h23.2l37.9-0.7l37.9-0.7h37.9
			l37.9,1.4l37.9-0.7l37.9,0.7h37.9l37.9,0.7l37.9-1.4l37.9,0.7l37.9-0.7l37.9,1.4h37.9h38.6l0.7-41.4L1248.8,643.5z M71.9,626.7
			l-0.7-2.8c0-0.7,0-0.7,0.7-0.7l2.8,0.7l4.2,8.4l1.4,3.5L71.9,626.7z M101.4,652.6l-4.2,2.1l-6.3-5.6l-2.1-17.5l1.4-5.6l2.8-2.8
			l2.1,4.9l5.6,6.3l-8.4,7.7l8.4,4.2L101.4,652.6z M114,545.3l-5.6-1.4l-2.1-4.2l1.4-4.9l4.2,0.7l3.5,2.8l3.5,4.2L114,545.3z
			 M135.1,550.9l-3.5,2.8h-4.9l0.7-4.9l4.9-2.1h4.9L135.1,550.9z M148.4,602.1l-4.2-2.8l9.1-3.5l2.8,0.7l0.7,4.2L148.4,602.1z
			 M224.2,651.9l-4.9-2.8l-1.4-2.8l3.5-0.7l4.2,3.5L224.2,651.9z M245.3,562.8h-3.5l-2.1-1.4c0.7-0.7,0.7-1.4,0.7-1.4
			c0.7-0.7,0.7-1.4,0.7-2.1l2.8-0.7l3.5,1.4v3.5L245.3,562.8z M263.5,713.7l-2.1-0.7l-5.6-4.9l-2.1-3.5l-2.1-3.5h3.5l4.2,6.3h3.5
			C264.2,710.2,263.5,712.3,263.5,713.7z M333.7,682.1l-4.9-4.2v-2.8h3.5l3.5,2.1l1.4,3.5L333.7,682.1z M408.1,672.3l-2.8-1.4
			l-1.4-4.2l2.1-2.8l5.6,7L408.1,672.3z M441.8,686.3l-0.7-2.1c0,0,0.7-0.7,1.4-1.4h2.8l3.5,7v3.5L441.8,686.3z M486,641.4l-6.3-0.7
			l-2.1-2.1l5.6-2.8h2.8l1.4,3.5L486,641.4z M746.3,590.2l-2.8,2.1h-4.2l0.7-3.5l3.5-2.1h4.2L746.3,590.2z M764.6,600l-2.8,2.1h-4.2
			l0.7-3.5l3.5-2.1h4.2L764.6,600z M798.9,555.1l1.4-7l-0.7-0.7l-0.7-1.4l-0.7-1.4l1.4,2.8l0.7,1.4l0.7,3.5v3.5L798.9,555.1z
			 M823.5,699.6l-11.2,0.7l3.5-4.2l3.5-0.7l3.5,1.4l1.4,1.4C824.2,698.9,823.5,699.6,823.5,699.6z M853.7,585.3l-2.1-4.2v-0.7
			l-0.7-3.5l0.7-2.8l2.8,0.7l1.4,2.1l2.1,3.5l0,0l0.7,0.7l2.1,3.5L853.7,585.3z M910.5,623.9l-2.8-2.8v-3.5l1.4-2.8l2.8,2.1l1.4,3.5
			l1.4,4.2L910.5,623.9z M949.8,534h-1.4c-0.7-2.8-2.1-4.9-2.8-7.7h0.7c1.4,0.7,3.5,1.4,4.9,2.1l1.4,2.8L949.8,534z M1043.9,660.4
			l-3.5,0.7l-3.5-1.4l2.1-2.8h4.2l3.5,1.4L1043.9,660.4z M1065.6,605.6l-2.8-0.7l-2.1,2.8l2.8,3.5l2.1,3.5l-9.8-2.1l1.4-2.8l4.2-5.6
			l5.6-1.4L1065.6,605.6z M1095.1,631.6l0.7-4.2l1.4-2.1l2.1,1.4l0.7,2.1v4.2L1095.1,631.6z M1121.1,562.1l-6.3-2.1l-2.8-2.8
			l7.7,0.7l2.1,1.4L1121.1,562.1z M1155.4,546l-2.1,2.8v-6.3l-4.2-9.8l2.1-1.4l3.5,7l4.2,0.7v5.6L1155.4,546z M1175.1,574.7
			l-3.5-1.4l-1.4-2.8c0.7-1.4,1.4-2.8,2.1-4.2l1.4-2.8l2.8,2.1v4.2L1175.1,574.7z"/>
	</g>
	<g>
		<g>
			<path fill="#8AB839" d="M81.1,681.4c-2.1,0-3.5-1.4-3.5-3.5V568.4c0-2.1,1.4-3.5,3.5-3.5h47.7c30.9,0,45.6,21.1,45.6,44.9
				c0,24.6-14.7,45.6-45.6,45.6h-18.2c-1.4,0-2.8,1.4-2.8,2.8v19.6c0,2.1-1.4,3.5-3.5,3.5L81.1,681.4L81.1,681.4z M127.4,592.3
				h-16.8c-1.4,0-2.8,1.4-2.8,2.8v29.5c0,1.4,1.4,2.8,2.8,2.8h16.8c12.6,0,17.5-7.7,17.5-18.2C144.9,600.7,140,592.3,127.4,592.3z"
				/>
			<path fill="#8AB839" d="M181.4,623.2c0-33.7,28.1-60.4,61.8-60.4c34.4,0,61.8,27.4,61.8,60.4c0,33.7-28.1,60.4-61.8,60.4
				C209.5,684.2,181.4,656.8,181.4,623.2z M211.6,623.2c0,17.5,14,31.6,31.6,31.6c18.2,0,31.6-14,31.6-31.6
				c0-17.5-14-31.6-31.6-31.6S211.6,605.6,211.6,623.2z"/>
			<path fill="#8AB839" d="M313.3,650.5c0-2.1,2.1-4.2,4.2-4.2h19.6c3.5,0,4.2,0.7,6.3,4.2c2.1,4.2,8.4,7.7,18.9,7.7
				c11.2,0,14.7-3.5,14.7-7c0-4.9-5.6-7.7-19.6-12.6c-18.2-6.3-42.8-15.4-42.8-39.3c0-22.5,18.9-36.5,45.6-36.5
				c27.4,0,46.3,14,47.7,35.1c0,2.1-2.1,4.2-4.2,4.2h-21.1c-2.8,0-4.2-1.4-4.9-4.2c-2.1-4.9-7.7-9.1-17.5-9.1c-10.5,0-14,4.2-14,7.7
				c0,4.9,5.6,7,19.6,11.9c16.1,5.6,43.5,15.4,43.5,40.7c0,22.5-19.6,35.1-46.3,35.1C335.8,684.2,315.4,672.3,313.3,650.5z"/>
			<path fill="#8AB839" d="M418.6,593.7c-2.1,0-3.5-1.4-3.5-3.5v-21.8c0-2.1,1.4-3.5,3.5-3.5H514c2.1,0,3.5,1.4,3.5,3.5v21.8
				c0,2.1-1.4,3.5-3.5,3.5h-29.5c-1.4,0-2.8,1.4-2.8,2.8v81.4c0,2.1-1.4,3.5-3.5,3.5h-22.5c-2.1,0-3.5-1.4-3.5-3.5v-81.4
				c0-1.4-1.4-2.8-2.8-2.8H418.6z"/>
			<path fill="#8AB839" d="M532.3,681.4c-2.1,0-3.5-1.4-3.5-3.5V568.4c0-2.1,1.4-3.5,3.5-3.5h82.8c2.1,0,3.5,1.4,3.5,3.5v21.8
				c0,2.1-1.4,3.5-3.5,3.5h-53.3c-1.4,0-2.8,1.4-2.8,2.8V607c0,1.4,1.4,2.8,2.8,2.8h42.8c2.1,0,3.5,1.4,3.5,3.5V633
				c0,2.1-1.4,3.5-3.5,3.5h-42.8c-1.4,0-2.8,1.4-2.8,2.8v9.1c0,1.4,1.4,2.8,2.8,2.8h53.3c2.1,0,3.5,1.4,3.5,3.5v21.8
				c0,2.1-1.4,3.5-3.5,3.5h-82.8V681.4z"/>
			<path fill="#8AB839" d="M633.3,568.4c0-2.1,1.4-3.5,3.5-3.5h53.3c30.2,0,43.5,19.6,43.5,42.8c0,15.4-6.3,30.2-20.4,37.2
				c-1.4,0.7-2.1,2.8-0.7,4.2l21.8,30.2c0.7,1.4,0,2.8-1.4,2.8h-28.8c-2.1,0-4.2-1.4-5.6-2.8l-18.2-26.7c-0.7-1.4-2.8-2.1-4.9-2.1
				h-9.1c-1.4,0-2.8,1.4-2.8,2.8v24.6c0,2.1-1.4,3.5-3.5,3.5h-22.5c-2.1,0-3.5-1.4-3.5-3.5V568.4H633.3z M688.8,592.3h-22.5
				c-1.4,0-2.8,1.4-2.8,2.8v25.3c0,1.4,1.4,2.8,2.8,2.8h22.5c11.9,0,16.1-7,16.1-15.4C704.9,598.6,700.7,592.3,688.8,592.3z"/>
			<path fill="#F2F2F2" d="M751.2,681.4c-2.1,0-3.5-1.4-3.5-3.5V568.4c0-2.1,1.4-3.5,3.5-3.5h79.3c2.1,0,3.5,1.4,3.5,3.5v21.8
				c0,2.1-1.4,3.5-3.5,3.5H780c-1.4,0-2.8,1.4-2.8,2.8v14.7c0,1.4,1.4,2.8,2.8,2.8h41.4c2.1,0,3.5,1.4,3.5,3.5v19.6
				c0,2.1-1.4,3.5-3.5,3.5H780c-1.4,0-2.8,1.4-2.8,2.8v33.7c0,2.1-1.4,3.5-3.5,3.5h-22.5V681.4z"/>
			<path fill="#F2F2F2" d="M871.9,567.7c0.7-2.1,2.8-3.5,4.9-3.5h22.5c2.1,0,4.2,1.4,4.9,3.5l44.2,110.2c0.7,1.4-0.7,3.5-2.1,3.5
				h-25.3c-2.1,0-4.2-1.4-4.9-3.5l-4.2-11.2c-0.7-1.4-2.1-2.8-4.2-2.8h-40c-2.1,0-3.5,1.4-4.2,2.8l-4.2,11.2
				c-0.7,2.1-2.8,3.5-4.9,3.5h-25.3c-2.1,0-2.8-2.1-2.1-3.5L871.9,567.7z M897.9,637.2c1.4,0,2.1-1.4,2.1-2.8l-10.5-28.8
				c0-0.7-2.1-0.7-2.1,0l-10.5,28.8c-0.7,1.4,0.7,2.8,2.1,2.8H897.9z"/>
			<path fill="#F2F2F2" d="M959.6,568.4c0-2.1,1.4-3.5,3.5-3.5h53.3c30.2,0,43.5,19.6,43.5,42.8c0,15.4-6.3,30.2-20.4,37.2
				c-1.4,0.7-2.1,2.8-0.7,4.2l21.8,30.2c0.7,1.4,0,2.8-1.4,2.8h-28.8c-2.1,0-4.2-1.4-5.6-2.8l-18.2-26c-0.7-1.4-2.8-2.1-4.9-2.1
				h-9.1c-1.4,0-2.8,1.4-2.8,2.8v24.6c0,2.1-1.4,3.5-3.5,3.5h-22.5c-2.1,0-3.5-1.4-3.5-3.5V568.4H959.6z M1015.1,592.3h-22.5
				c-1.4,0-2.8,1.4-2.8,2.8v25.3c0,1.4,1.4,2.8,2.8,2.8h22.5c11.9,0,16.1-7,16.1-15.4C1031.2,598.6,1027,592.3,1015.1,592.3z"/>
			<path fill="#F2F2F2" d="M1104.2,677.9c0,2.1-1.4,3.5-3.5,3.5h-22.5c-2.1,0-3.5-1.4-3.5-3.5V568.4c0-2.1,1.4-3.5,3.5-3.5h23.2
				c2.1,0,4.2,1.4,4.9,2.8l30.9,61.1c0.7,1.4,2.1,1.4,2.8,0l30.9-61.1c0.7-2.1,2.8-2.8,4.9-2.8h23.2c2.1,0,3.5,1.4,3.5,3.5v109.5
				c0,2.1-1.4,3.5-3.5,3.5h-22.5c-2.1,0-3.5-1.4-3.5-3.5v-53.3c0-0.7-0.7-0.7-1.4,0l-21.1,42.8c-0.7,2.1-2.8,2.8-4.9,2.8H1133
				c-2.1,0-4.2-1.4-4.9-2.8l-21.1-42.8c0-0.7-1.4-0.7-1.4,0v53.3H1104.2z"/>
		</g>
	</g>
</g>
<rect x="28.4" y="-238.6" fill="none" width="1223.2" height="687.7"/>
</svg>
