<?xml version="1.0" encoding="utf-8"?>
<!-- Generator: Adobe Illustrator 18.0.0, SVG Export Plug-In . SVG Version: 6.00 Build 0)  -->
<!DOCTYPE svg PUBLIC "-//W3C//DTD SVG 1.1//EN" "http://www.w3.org/Graphics/SVG/1.1/DTD/svg11.dtd">
<svg version="1.1" id="Layer_1" xmlns="http://www.w3.org/2000/svg" xmlns:xlink="http://www.w3.org/1999/xlink" x="0px" y="0px"
	 viewBox="0 0 50 50" enable-background="new 0 0 50 50" xml:space="preserve">
<g>
	<polygon fill="none" points="18.8,8.1 18.9,7.4 18.4,7 16.4,6.8 17.1,7.6 	"/>
	<path fill="none" d="M32.8,11.4l0.2-1.3V9l-0.6-0.5l-0.3,0.7c-0.2,0.4-0.3,0.7-0.5,1.1l0.3,0.7L32.8,11.4z"/>
	<polygon fill="none" points="27,4.6 27.8,3.9 29,3.5 29,2.1 27.7,1.9 26.7,0.1 26,0.4 27,3 	"/>
	<polygon fill="none" points="2.1,20.6 1.7,21.3 4.3,21.9 3.7,21 3,20 3.6,19.3 4.3,19.5 4.6,18.8 3.2,19.1 	"/>
	<polygon fill="none" points="40.1,47 42.2,46.6 43.8,45.3 41.7,44.5 	"/>
	<g>
		<path fill="#212A3F" d="M50,4c0-2.2-1.8-4-4-4H4C1.8,0,0,1.8,0,4v42c0,2.2,1.8,4,4,4h42c2.2,0,4-1.8,4-4V4z"/>
	</g>
</g>
<path fill="#F2F2F2" d="M39.7,30.6c-0.2,0.3-1,1.2-1.9,2c-0.8,0.8-1.7,1.7-2,1.9c0,0,0,0-0.3,0s-0.3,0-0.3,0
	c-0.3-0.2-1.8-1.6-3.3-3.2l-4-4c-0.5-0.5-1.6-1.6-2.3-2.3c-0.3-0.3-0.9-0.3-1.2,0c-0.7,0.7-1.7,1.7-2.2,2.3l-4,4
	c-1.6,1.6-3.1,3-3.3,3.2c0,0,0,0-0.3,0s-0.3,0-0.3,0c-0.3-0.2-1.2-1-2-1.9c-0.8-0.8-1.7-1.7-1.9-2c0,0,0,0,0-0.3s0-0.3,0-0.3
	c0.2-0.3,1.6-1.8,3.2-3.3l7.9-7.9c1.6-1.6,3.1-3,3.3-3.2c0,0,0-0.1,0.3-0.1s0.3,0.1,0.3,0.1c0.3,0.2,1.8,1.6,3.3,3.2l7.9,7.9
	c1.6,1.6,3,3.1,3.2,3.3c0,0,0,0,0,0.3C39.7,30.6,39.7,30.6,39.7,30.6z"/>
</svg>
